<svg width="128" height="128" viewBox="0 0 128 128" fill="none" xmlns="http://www.w3.org/2000/svg">
<path d="M20.7725 39.742C20.007 40.1955 18.7331 41.4794 17.2191 43.3416L18.6116 45.9832C19.5918 44.5802 20.5861 43.3132 21.5888 42.2334C21.6679 42.1483 21.7046 42.1086 21.7046 42.1086C21.6679 42.1483 21.6255 42.1937 21.5888 42.2334C21.264 42.5905 20.2782 43.7469 18.7924 46.037C20.2245 45.9662 22.4221 45.6714 24.2157 45.3653C24.7524 42.3637 23.6932 40.9919 23.6932 40.9919C23.6932 40.9919 22.3486 38.8095 20.7725 39.742Z" fill="url(#paint0_linear_1_152)"/>
<path d="M16.0865 61.9318C15.9086 61.9629 15.7278 61.997 15.5385 62.0281C15.5385 62.0281 15.5357 62.0281 15.5357 62.031C15.6317 62.0168 15.725 62.0026 15.8182 61.9884C15.9057 61.9686 15.9961 61.9516 16.0865 61.9318Z" fill="#BD202E"/>
<path opacity="0.35" d="M16.0865 61.9318C15.9086 61.9629 15.7278 61.997 15.5385 62.0281C15.5385 62.0281 15.5357 62.0281 15.5357 62.031C15.6317 62.0168 15.725 62.0026 15.8182 61.9884C15.9057 61.9686 15.9961 61.9516 16.0865 61.9318Z" fill="#BD202E"/>
<path d="M16.5526 59.6218C16.5526 59.6218 16.5526 59.6246 16.5526 59.6218C16.5497 59.6218 16.5497 59.6218 16.5497 59.6246C16.578 59.6218 16.6091 59.6161 16.6373 59.6104C16.7559 59.5934 16.8718 59.5736 16.9847 59.5453C16.8435 59.5708 16.7023 59.5963 16.5526 59.6218Z" fill="#BD202E"/>
<path opacity="0.35" d="M16.5526 59.6218C16.5526 59.6218 16.5526 59.6246 16.5526 59.6218C16.5497 59.6218 16.5497 59.6218 16.5497 59.6246C16.578 59.6218 16.6091 59.6161 16.6373 59.6104C16.7559 59.5934 16.8718 59.5736 16.9847 59.5453C16.8435 59.5708 16.7023 59.5963 16.5526 59.6218Z" fill="#BD202E"/>
<path d="M14.4989 52.8111C14.9226 52.0146 15.352 51.238 15.7842 50.4841C16.2333 49.6961 16.6909 48.9365 17.1513 48.1996C17.1767 48.1571 17.2078 48.1118 17.2332 48.0692C17.688 47.3465 18.1484 46.6492 18.6088 45.986L17.2163 43.3444C17.1118 43.4719 17.0072 43.6023 16.8999 43.7384C16.496 44.2429 16.0808 44.7814 15.6514 45.3568C15.1684 46.003 14.6741 46.6946 14.1685 47.4202C13.7052 48.0891 13.2307 48.7892 12.7561 49.5176C12.3522 50.1355 11.9511 50.7704 11.55 51.4223C11.5359 51.4449 11.5218 51.4704 11.5076 51.496L13.3239 55.0956C13.708 54.3161 14.1035 53.5537 14.4989 52.8111Z" fill="url(#paint1_linear_1_152)"/>
<path d="M6.22845 73.0824C5.98835 73.7428 5.74543 74.4202 5.50534 75.109C5.50251 75.1175 5.49969 75.1288 5.49404 75.1373C5.46014 75.2337 5.42342 75.3329 5.39235 75.4293C5.22852 75.8941 5.08729 76.3136 4.76245 77.2631C5.29631 77.5068 5.72566 78.1531 6.13241 78.8843C6.09004 78.1276 5.77933 77.4161 5.18333 76.8663C7.81873 76.9853 10.0898 76.3164 11.2648 74.3834C11.3693 74.2105 11.4654 74.0319 11.5529 73.8364C11.0191 74.5166 10.3553 74.8029 9.1096 74.7349C9.10678 74.7349 9.10395 74.7377 9.10113 74.7377C9.10395 74.7377 9.10678 74.7349 9.1096 74.7349C10.9456 73.9101 11.8636 73.1193 12.68 71.8098C12.8721 71.498 13.0613 71.1608 13.2534 70.7838C11.649 72.4362 9.79317 72.9067 7.83568 72.5496L6.36686 72.7111C6.31884 72.8358 6.27647 72.9577 6.22845 73.0824Z" fill="url(#paint2_linear_1_152)"/>
<path d="M6.91488 69.7861C7.23124 68.9641 7.5589 68.1308 7.89221 67.2919C8.21422 66.4869 8.54188 65.6763 8.88084 64.8657C9.2198 64.055 9.56441 63.2359 9.91467 62.4196C10.2706 61.5892 10.6378 60.7615 11.0135 59.9368C11.3835 59.1205 11.7563 58.3098 12.1377 57.5106C12.2733 57.2215 12.4145 56.9324 12.5529 56.6461C12.793 56.1501 13.0359 55.6569 13.2817 55.1694C13.2958 55.1439 13.3071 55.1155 13.3212 55.09L11.5049 51.4904C11.4767 51.5386 11.4456 51.5896 11.4146 51.635C10.9909 52.3294 10.57 53.038 10.1576 53.7607C9.73954 54.492 9.32996 55.2374 8.92886 55.9942C8.59272 56.6319 8.26224 57.2725 7.9374 57.9244C7.87244 58.0547 7.81029 58.188 7.74533 58.3183C7.34987 59.1375 6.99397 59.9226 6.66913 60.685C6.30192 61.5438 5.97991 62.3658 5.70027 63.1452C5.51384 63.6582 5.34719 64.1514 5.19183 64.6276C5.06472 65.0329 4.94609 65.441 4.82745 65.8464C4.55628 66.7987 4.32184 67.751 4.12976 68.6977L5.95449 72.3115C6.19459 71.6653 6.44316 71.0077 6.69738 70.3445C6.77364 70.1546 6.84143 69.9675 6.91488 69.7861Z" fill="url(#paint3_linear_1_152)"/>
<path d="M4.10988 68.8196C3.88108 69.976 3.71725 71.1267 3.63534 72.2718C3.63251 72.3115 3.62969 72.3512 3.62686 72.3908C3.05628 71.4753 1.53379 70.5825 1.53662 70.591C2.62976 72.1783 3.45738 73.7542 3.57884 75.3017C2.99414 75.4207 2.19476 75.2479 1.2711 74.9077C2.23431 75.7977 2.95742 76.0415 3.24271 76.1095C2.35577 76.1662 1.43493 76.7756 0.505614 77.4785C1.86428 76.9229 2.96307 76.7019 3.74832 76.8804C2.49982 80.4234 1.25132 84.3348 0 88.4899C0.384154 88.3765 0.612951 88.1158 0.740061 87.7671C0.963209 87.016 2.44051 82.0786 4.75955 75.5965C4.82734 75.4122 4.89231 75.2252 4.9601 75.0409C4.97705 74.9871 4.99682 74.9361 5.0166 74.8879C5.25952 74.2077 5.51656 73.5132 5.77643 72.8047C5.83575 72.6431 5.89507 72.4815 5.95721 72.32C5.95721 72.3171 5.96003 72.3143 5.96003 72.3115L4.13248 68.6977C4.12683 68.7345 4.11835 68.7771 4.10988 68.8196Z" fill="url(#paint4_linear_1_152)"/>
<path d="M13.6035 55.3903C13.5498 55.498 13.499 55.6057 13.4453 55.7134C13.2871 56.0394 13.1289 56.371 12.9651 56.7111C12.79 57.0796 12.6148 57.4537 12.4369 57.8392C12.3465 58.0319 12.2561 58.2275 12.1657 58.4259C11.8946 59.0183 11.6206 59.6305 11.3409 60.2625C10.9991 61.0363 10.6461 61.8441 10.293 62.6831C9.95684 63.4824 9.60941 64.3071 9.2648 65.1631C8.93432 65.9737 8.60101 66.8127 8.26205 67.6743C7.95981 68.4424 7.65474 69.2361 7.34968 70.0495C7.33556 70.0864 7.32143 70.1289 7.30731 70.1657C7.00225 70.9735 6.69436 71.804 6.38647 72.6543C6.38082 72.6741 6.37235 72.6911 6.3667 72.7138L7.83552 72.5522C7.80728 72.5466 7.7762 72.5437 7.74796 72.5381C9.50207 72.3198 11.8381 71.0019 13.3436 69.3778C14.0385 68.6295 14.6684 67.7452 15.2503 66.7107C15.6824 65.9426 16.092 65.0866 16.4818 64.1428C16.8208 63.318 17.1456 62.4223 17.4591 61.4558C17.0552 61.6684 16.5948 61.8271 16.0864 61.9348C15.996 61.9546 15.9056 61.9716 15.8124 61.9887C15.7191 62.0057 15.6259 62.0198 15.5299 62.0312C15.5299 62.0312 15.5327 62.0312 15.5327 62.0283C17.171 61.3963 18.202 60.1775 18.9506 58.6838C18.5212 58.9786 17.8207 59.3641 16.9818 59.5483C16.8688 59.5738 16.753 59.5936 16.6343 59.6135C16.6061 59.6163 16.575 59.622 16.5468 59.6277H16.5496C16.5496 59.6277 16.5496 59.6277 16.5524 59.6277C17.123 59.3896 17.6004 59.1203 18.0156 58.8057C18.106 58.7377 18.1936 58.6696 18.2726 58.5959C18.3998 58.4854 18.5184 58.3692 18.637 58.2502C18.7105 58.1708 18.7811 58.0914 18.8517 58.0092C19.0155 57.8137 19.1681 57.6039 19.3093 57.3772C19.3517 57.3063 19.3969 57.2383 19.4364 57.1646C19.4929 57.0597 19.5437 56.9549 19.5946 56.8557C19.8234 56.3965 20.007 55.9827 20.151 55.6227C20.2245 55.4413 20.2866 55.2769 20.3431 55.1182C20.3657 55.0559 20.3855 54.9963 20.4053 54.9368C20.4646 54.7639 20.5098 54.6109 20.5465 54.4748C20.603 54.2707 20.6369 54.1092 20.6538 53.993C20.5973 54.0355 20.5352 54.0808 20.4618 54.1234C19.9674 54.421 19.12 54.6874 18.4365 54.8149L19.7838 54.6676L18.4365 54.8149C18.428 54.8178 18.4167 54.8178 18.4054 54.8206C18.3348 54.8319 18.2698 54.8433 18.1992 54.8518C18.2105 54.8461 18.2218 54.8404 18.2331 54.8348L13.6204 55.3421C13.6204 55.3535 13.612 55.3733 13.6035 55.3903Z" fill="url(#paint5_linear_1_152)"/>
<path d="M18.7954 46.0368C18.3858 46.6689 17.9395 47.386 17.4537 48.1994C17.4283 48.2391 17.4 48.2873 17.3774 48.327C16.9622 49.0299 16.5216 49.8008 16.0527 50.6483C15.6516 51.3795 15.2335 52.1618 14.7985 53.0036C14.42 53.7377 14.0302 54.5172 13.6263 55.342L18.239 54.8346C19.5835 54.2139 20.1823 53.6555 20.7642 52.8421C20.9167 52.6182 21.0749 52.3857 21.2274 52.142C21.702 51.3994 22.1652 50.5831 22.5805 49.7696C22.9816 48.9845 23.3346 48.2079 23.6058 47.505C23.7781 47.06 23.9165 46.6462 24.0126 46.2806C24.0973 45.9603 24.1623 45.6542 24.2131 45.3622C22.4251 45.6712 20.2247 45.966 18.7954 46.0368Z" fill="url(#paint6_linear_1_152)"/>
<path d="M15.8124 61.9828C15.7192 61.9998 15.626 62.0139 15.53 62.0253C15.626 62.0168 15.722 61.9998 15.8124 61.9828Z" fill="#BD202E"/>
<path opacity="0.35" d="M15.8124 61.9828C15.7192 61.9998 15.626 62.0139 15.53 62.0253C15.626 62.0168 15.722 61.9998 15.8124 61.9828Z" fill="#BD202E"/>
<path d="M15.8124 61.9828C15.7192 61.9998 15.626 62.0139 15.53 62.0253C15.626 62.0168 15.722 61.9998 15.8124 61.9828Z" fill="url(#paint7_linear_1_152)"/>
<path d="M16.5497 59.6251C16.578 59.6223 16.6091 59.6166 16.6373 59.611C16.6091 59.6138 16.5808 59.6223 16.5497 59.6251Z" fill="#BD202E"/>
<path opacity="0.35" d="M16.5497 59.6251C16.578 59.6223 16.6091 59.6166 16.6373 59.611C16.6091 59.6138 16.5808 59.6223 16.5497 59.6251Z" fill="#BD202E"/>
<path d="M16.5497 59.6251C16.578 59.6223 16.6091 59.6166 16.6373 59.611C16.6091 59.6138 16.5808 59.6223 16.5497 59.6251Z" fill="url(#paint8_linear_1_152)"/>
<path d="M16.5497 59.6253C16.5533 59.6217 16.5533 59.6253 16.5497 59.6253C16.5533 59.6217 16.5533 59.6253 16.5497 59.6253Z" fill="#BD202E"/>
<path opacity="0.35" d="M16.5497 59.6253C16.5533 59.6217 16.5533 59.6253 16.5497 59.6253C16.5533 59.6217 16.5533 59.6253 16.5497 59.6253Z" fill="#BD202E"/>
<path d="M16.5497 59.6253C16.5533 59.6217 16.5533 59.6253 16.5497 59.6253C16.5533 59.6217 16.5533 59.6253 16.5497 59.6253Z" fill="url(#paint9_linear_1_152)"/>
<path d="M82.6305 72.5695C82.3474 72.5185 81.2787 72.2438 81.1116 72.179C80.7196 72.0271 79.3736 71.3353 79.2155 71.2045C79.0042 71.0296 78.9771 71.0086 78.5923 70.7208C78.2109 70.4357 77.393 69.6149 77.1089 69.2324C76.9875 69.0688 76.8548 68.8943 76.814 68.8446C76.7733 68.7949 76.705 68.7113 76.6622 68.6587C76.5724 68.5484 75.8138 67.2621 75.8138 67.2201C75.8138 67.2047 75.7348 67.0155 75.6384 66.7996C75.5419 66.5837 75.405 66.2398 75.3341 66.0353C75.2633 65.8309 75.1767 65.5967 75.1417 65.5149C75.0633 65.3318 74.8493 64.3205 74.772 63.7677C74.6903 63.1831 74.6928 61.5788 74.7763 61.0539C74.9962 59.6713 75.1697 59.0805 75.6729 58.0007C75.7504 57.8345 75.8138 57.6588 75.8138 57.6104C75.8138 57.562 75.8471 57.5224 75.8878 57.5224C75.9286 57.5224 75.9619 57.4791 75.9619 57.4263C75.9619 57.3735 76.1678 57.0172 76.4194 56.6346C76.8276 56.0141 77.7572 54.9836 78.37 54.4724C79.0042 53.9434 80.2585 53.2539 81.0076 53.0226C81.2278 52.9546 81.4913 52.87 81.5932 52.8347C81.9697 52.7041 82.6932 52.6091 83.6308 52.5672C84.8393 52.5132 86.1073 52.6715 87.0021 52.9881C87.6713 53.225 88.2826 53.5082 88.3235 53.6004C88.3371 53.6311 88.3806 53.6562 88.4202 53.6562C88.5764 53.6562 89.4176 54.2957 89.9226 54.7984C90.507 55.3801 90.8896 55.8896 91.1927 56.4898C91.3825 56.8657 91.3848 56.8841 91.2522 56.9758C91.1764 57.0283 91.0794 57.0974 91.0367 57.1295C90.994 57.1616 90.8721 57.238 90.7659 57.2993C90.6597 57.3607 90.4192 57.5063 90.2314 57.6229C89.8488 57.8606 89.7029 57.8431 89.5904 57.5463C89.2762 56.717 87.8351 55.3564 86.8539 54.9626C85.7735 54.5289 85.1181 54.3995 84.0062 54.4003C82.828 54.4015 82.0703 54.5463 81.1285 54.9518C80.8068 55.0903 80.1205 55.5017 79.9763 55.6424C79.9225 55.695 79.8556 55.738 79.8278 55.738C79.7491 55.738 78.9251 56.554 78.5626 56.991C78.1701 57.464 77.4884 58.6805 77.3273 59.1952C77.2633 59.3997 77.1817 59.6339 77.1459 59.7157C76.8312 60.4352 76.6457 62.1783 76.7604 63.3402C76.8388 64.1355 77.0036 64.9682 77.1466 65.2919C77.1827 65.3736 77.2344 65.5242 77.2615 65.6264C77.3808 66.0773 78.0785 67.3818 78.4441 67.8378C78.8093 68.2932 79.4755 68.9962 79.7779 69.2451C80.1242 69.5302 81.2486 70.2355 81.3585 70.2365C81.3857 70.2365 81.494 70.282 81.5992 70.3371C81.7044 70.3922 82.0879 70.5174 82.4513 70.6154C83.0069 70.7651 83.2714 70.792 84.1124 70.7844C85.5196 70.7717 86.4125 70.528 87.5949 69.834C88.3696 69.3792 89.4397 68.3294 89.8177 67.6532C89.9604 67.3981 90.1104 67.1889 90.1512 67.1883C90.3083 67.1862 91.7442 67.9701 91.7442 68.0581C91.7442 68.1623 91.3126 68.9887 91.2281 69.0465C91.1981 69.0669 91.1352 69.1569 91.0883 69.2463C90.9114 69.5835 90.1003 70.3794 89.3361 70.9656C88.9306 71.2767 87.8572 71.8237 87.1133 72.0984C86.1248 72.4634 85.5253 72.5613 84.1495 72.5824C83.4159 72.5937 82.7324 72.5879 82.6305 72.5695ZM23.5026 72.4655C23.5026 72.4241 23.5347 72.3321 23.5741 72.2611C23.6134 72.1901 23.7152 71.9647 23.8004 71.7602C23.8855 71.5558 23.9846 71.3216 24.0205 71.2398C24.0563 71.158 24.2895 70.606 24.5385 70.013C24.7876 69.4201 25.0217 68.868 25.0587 68.7863C25.0957 68.7045 25.2124 68.4201 25.3179 68.1543C25.4234 67.8885 25.5398 67.6041 25.5765 67.5223C25.6132 67.4405 25.7141 67.2063 25.8008 67.0019C25.8875 66.7974 26.006 66.5247 26.0642 66.3959C26.1224 66.267 26.17 66.1397 26.17 66.113C26.17 66.0708 26.3121 65.7281 26.5412 65.2175C26.5779 65.1357 26.6943 64.8513 26.7998 64.5855C26.9053 64.3197 27.022 64.0353 27.0591 63.9536C27.0962 63.8718 27.2129 63.5874 27.3185 63.3216C27.424 63.0558 27.5404 62.7714 27.5771 62.6896C27.6138 62.6078 27.7141 62.3736 27.8001 62.1692C27.886 61.9647 27.9857 61.7305 28.0216 61.6487C28.0575 61.567 28.2409 61.132 28.429 60.6822C28.6171 60.2324 28.801 59.7974 28.8376 59.7157C28.8742 59.6339 29.0408 59.2324 29.2079 58.8235C29.375 58.4145 29.5415 58.0131 29.5779 57.9313C29.6143 57.8495 29.7608 57.4982 29.9033 57.1506C30.7018 55.2034 30.8848 54.763 31.062 54.3625C31.0981 54.2807 31.2147 53.9964 31.321 53.7306C31.4273 53.4648 31.579 53.1051 31.6581 52.9313L31.802 52.6153H32.6075H33.4131L33.5787 53.0057C33.7848 53.4912 34.0113 54.0181 34.0982 54.2138C34.3504 54.7821 34.4686 55.0668 34.4686 55.106C34.4686 55.1476 34.6108 55.4842 34.8815 56.0838C34.9397 56.2126 34.9873 56.3399 34.9873 56.3667C34.9873 56.4087 35.1019 56.6856 35.3578 57.2621C35.61 57.8304 35.7283 58.1151 35.7283 58.1543C35.7283 58.1793 35.7974 58.3567 35.8818 58.5487C35.9663 58.7407 36.0852 59.0149 36.1462 59.1581C36.2071 59.3012 36.2865 59.4852 36.3227 59.567C36.3589 59.6487 36.4748 59.9331 36.5804 60.1989C36.6859 60.4647 36.802 60.7491 36.8384 60.8309C36.8748 60.9127 37.1087 61.4647 37.3584 62.0577C37.608 62.6506 37.842 63.2026 37.8783 63.2844C37.9147 63.3662 37.9988 63.567 38.0652 63.7305C38.7465 65.4096 39.0171 66.0697 39.1012 66.2584C39.156 66.3811 39.338 66.816 39.5058 67.2249C39.6736 67.6338 39.8408 68.0353 39.8772 68.1171C39.9137 68.1989 40.0139 68.4331 40.0999 68.6376C40.1858 68.842 40.2862 69.0762 40.3229 69.158C40.3596 69.2398 40.476 69.5242 40.5815 69.79C40.687 70.0558 40.8035 70.3402 40.8403 70.4219C41.1992 71.2197 41.6559 72.3455 41.6559 72.4324C41.6559 72.5225 41.4745 72.5409 40.5865 72.5409C39.542 72.5409 39.5159 72.537 39.4662 72.3736C39.4208 72.2241 39.2485 71.8044 39.0618 71.3885C39.0251 71.3067 38.9082 71.0223 38.8019 70.7565C38.6208 70.3035 38.4743 69.9532 38.3199 69.6041C38.2837 69.5223 38.1678 69.2379 38.0623 68.9721C37.9567 68.7063 37.8404 68.422 37.8037 68.3402C37.5789 67.8394 37.4325 67.4874 37.4325 67.448C37.4325 67.423 37.3705 67.2623 37.2948 67.0907C37.2191 66.9192 37.1109 66.6701 37.0544 66.5372L36.9517 66.2956H32.5703H28.1888L28.0393 66.6487C27.9571 66.843 27.7987 67.2361 27.6872 67.5223C27.5757 67.8086 27.4221 68.1831 27.3459 68.3547C27.2697 68.5262 27.2073 68.687 27.2073 68.7119C27.2073 68.7513 27.0608 69.1033 26.8361 69.6041C26.7994 69.6859 26.683 69.9703 26.5775 70.2361C26.472 70.5019 26.3546 70.7863 26.3167 70.868C26.2787 70.9498 26.1272 71.3178 25.98 71.6859C25.8327 72.0539 25.695 72.3968 25.6738 72.4479C25.6251 72.566 23.5026 72.5832 23.5026 72.4655ZM36.4692 64.6558C36.4692 64.5849 36.36 64.3174 36.0563 63.6449C35.9982 63.5161 35.9505 63.3873 35.9505 63.3588C35.9505 63.3302 35.9021 63.2015 35.8429 63.0726C35.7837 62.9438 35.5496 62.3699 35.3228 61.7974C35.0959 61.225 34.8794 60.6896 34.8416 60.6079C34.8039 60.5261 34.6197 60.0577 34.4324 59.567C34.2451 59.0763 34.0622 58.6079 34.0259 58.5261C33.9897 58.4443 33.9101 58.2603 33.8492 58.1172C33.7883 57.974 33.6693 57.6998 33.5849 57.5079C33.5004 57.3159 33.4311 57.1319 33.4309 57.0989C33.4309 57.066 33.3874 56.9555 33.3347 56.8532C33.2821 56.751 33.1589 56.4499 33.0608 56.1841C32.9628 55.9183 32.8395 55.6172 32.7869 55.5149C32.7343 55.4127 32.6911 55.2872 32.6908 55.2361C32.6896 55.0798 32.5553 55.1328 32.5019 55.3105C32.4742 55.4025 32.4075 55.5781 32.3537 55.7008C32.2999 55.8235 32.1185 56.2584 31.9506 56.6674C31.7828 57.0763 31.5484 57.645 31.4299 57.9313C31.3113 58.2175 30.6819 59.7398 30.0312 61.3142C29.3805 62.8885 28.7952 64.3021 28.7306 64.4554L28.6131 64.7342H32.5412C35.2467 64.7342 36.4692 64.7098 36.4692 64.6558ZM43.7305 62.5781V52.6153L47.8614 52.6166C52.1757 52.6178 52.957 52.6576 53.6488 52.9164C54.137 53.099 54.8937 53.4753 55.0321 53.6043C55.0851 53.6537 55.2396 53.7771 55.3756 53.8785C56.3316 54.5919 57.2448 56.0161 57.5932 57.3372C57.9306 58.6163 57.7926 60.3577 57.2577 61.5714C56.4899 63.3134 55.1976 64.5192 53.5662 65.0155C53.2392 65.1151 52.5886 65.1382 49.4544 65.1618L45.7311 65.1898V68.8657V72.5416H44.7308H43.7305V62.5788V62.5781ZM52.524 63.3155C53.8907 63.1258 54.9985 62.0808 55.552 60.4592C55.7424 59.9013 55.7857 58.3613 55.6284 57.7424C55.4147 56.9016 55.023 56.2034 54.4414 55.6265C54.1528 55.3402 53.8171 55.0559 53.6954 54.9946C53.5737 54.9333 53.4574 54.8652 53.437 54.8431C53.4166 54.8211 53.2499 54.7382 53.0665 54.659C52.7552 54.5244 52.5013 54.5133 49.2321 54.4911L45.7311 54.4673V58.9316V63.3959H48.8378C50.6594 63.3959 52.1841 63.3627 52.524 63.3155ZM56.6735 72.4851C56.6557 72.4545 56.7688 72.1283 56.925 71.7602C57.0812 71.3922 57.4967 70.3885 57.8483 69.5297C58.2 68.671 58.5328 67.868 58.5878 67.7454C58.6428 67.6227 58.8256 67.1877 58.9942 66.7788C59.2892 66.0627 59.4494 65.6819 59.5882 65.3662C59.6242 65.2844 59.7909 64.8829 59.9587 64.474C60.1265 64.0651 60.3078 63.6301 60.3617 63.5075C60.4155 63.3848 60.6314 62.8662 60.8414 62.3551C61.0514 61.8439 61.3197 61.1915 61.4377 60.9052C61.6892 60.295 62.5302 58.2957 62.6261 58.08C62.6625 57.9982 62.7786 57.7138 62.8841 57.448C62.9897 57.1822 63.106 56.8978 63.1428 56.8161C63.1795 56.7342 63.2804 56.5001 63.3671 56.2956C63.4538 56.0911 63.5723 55.8184 63.6305 55.6896C63.6886 55.5607 63.7362 55.4334 63.7362 55.4067C63.7362 55.3647 63.8508 55.0877 64.1067 54.5112C64.2539 54.1797 64.4653 53.6688 64.6298 53.2473C64.7256 53.0019 64.8345 52.7594 64.8719 52.7083C64.919 52.6439 65.185 52.6153 65.7369 52.6153H66.5339L66.6306 52.857C66.8249 53.3426 67.676 55.3698 67.8869 55.8495C67.9228 55.9313 68.089 56.3328 68.256 56.7417C68.4231 57.1506 68.5905 57.5521 68.628 57.6339C68.6655 57.7157 68.9487 58.4015 69.2574 59.1581C69.5661 59.9146 69.8486 60.6004 69.8852 60.6822C69.9218 60.764 70.1252 61.2491 70.3371 61.7603C70.8379 62.9684 71.3584 64.2118 71.442 64.3997C71.4784 64.4814 71.5785 64.7156 71.6644 64.9201C71.7504 65.1246 71.8507 65.3588 71.8874 65.4405C71.9241 65.5223 72.0411 65.8067 72.1474 66.0725C72.3284 66.5255 72.475 66.8758 72.6294 67.2249C72.6655 67.3067 72.7821 67.5911 72.8883 67.8569C72.9946 68.1227 73.1294 68.4456 73.188 68.5744C73.2466 68.7033 73.2945 68.8317 73.2945 68.8598C73.2945 68.8879 73.3945 69.1277 73.5168 69.3928C73.6391 69.6578 73.7391 69.8924 73.7391 69.914C73.7391 69.9357 73.787 70.0588 73.8456 70.1877C73.9042 70.3165 74.0391 70.6394 74.1453 70.9052C74.2516 71.171 74.3685 71.4554 74.4052 71.5372C74.6619 72.109 74.7764 72.3946 74.7764 72.4625C74.7764 72.582 72.7417 72.5681 72.6456 72.4479C72.6047 72.3968 72.2798 71.6357 71.9237 70.7565C71.5675 69.8773 71.2322 69.0576 71.1785 68.935C71.1248 68.8123 70.994 68.4944 70.8877 68.2286C70.7815 67.9628 70.6645 67.6785 70.6278 67.5967C70.5273 67.3728 70.2922 66.8099 70.185 66.5366L70.09 66.2944L65.6819 66.3136L61.2739 66.3327L60.8352 67.4108C60.5939 68.0037 60.3644 68.5663 60.3251 68.661C60.2859 68.7557 60.2538 68.8495 60.2538 68.8695C60.2538 68.9013 60.0929 69.2841 59.8826 69.7528C59.8459 69.8346 59.7289 70.119 59.6226 70.3848C59.5164 70.6506 59.3857 70.9684 59.3322 71.0911C59.2788 71.2138 59.1242 71.5901 58.9889 71.9275L58.7427 72.5409H57.7243C57.1642 72.5409 56.6913 72.5158 56.6735 72.4851ZM69.5898 64.6948C69.5898 64.6581 69.3346 64.0209 69.1143 63.5075C69.0617 63.3848 68.9403 63.067 68.8446 62.8012C68.7489 62.5354 68.6275 62.2343 68.5749 62.132C68.5223 62.0298 68.479 61.9192 68.4788 61.8863C68.4775 61.8345 68.3478 61.5158 68.1071 60.9796C68.0704 60.8978 67.9535 60.6134 67.8472 60.3476C67.741 60.0818 67.6103 59.764 67.5569 59.6413C67.5035 59.5186 67.3985 59.251 67.3236 59.0465C67.2487 58.8421 67.1446 58.5911 67.0924 58.4889C67.0401 58.3867 66.9971 58.2746 66.9969 58.2399C66.9969 58.2052 66.9482 58.0714 66.8893 57.9425C66.8304 57.8137 66.6596 57.3904 66.5098 57.0019C66.3599 56.6134 66.1794 56.1618 66.1087 55.9982C66.038 55.8346 65.9339 55.592 65.8774 55.459C65.7492 55.1574 65.6652 55.1816 65.5389 55.5563C65.4846 55.7176 65.4087 55.9164 65.3702 55.9982C65.3318 56.08 65.23 56.3142 65.144 56.5186C65.0581 56.7231 64.9577 56.9573 64.9209 57.0391C64.8606 57.173 64.0545 59.1064 63.0608 61.5001C62.8571 61.9907 62.6607 62.4592 62.6243 62.5409C62.5879 62.6227 62.422 63.0242 62.2556 63.4331C62.0892 63.8421 61.9042 64.2865 61.8444 64.4208C61.7846 64.5551 61.7357 64.6805 61.7357 64.6996C61.7357 64.7186 63.5028 64.7342 65.6627 64.7342C67.8226 64.7342 69.5898 64.7165 69.5898 64.6948ZM94.4467 72.4502C94.4268 72.3978 94.4192 67.9219 94.4296 62.5038L94.4487 52.6525H95.4119H96.3752L96.3943 57.0577L96.4134 61.4629H102.229H108.045V57.0391V52.6153H109.045H110.046V62.5781V72.5409H109.045H108.045V67.8941V63.2472H102.229H96.4133L96.3943 67.8755L96.3752 72.5037L95.429 72.5245C94.713 72.5403 94.474 72.5223 94.4467 72.4502ZM114.417 62.5781V52.6153H120.938H127.458V53.5447V54.474H121.938H116.418V57.9684V61.4629H121.234H126.05V62.3551V63.2472H121.234H116.418V66.9647V70.6822H122.049H127.68V71.6115V72.5409H121.049H114.417V62.5781Z" fill="#AA0000"/>
<path d="M22.9338 81.0716V74.9041H23.9714V77.5776H27.0226V74.9041H28.0602V81.0716H27.0226V78.5482H23.9714V81.0716H22.9338Z" fill="white"/>
<path d="M32.0903 75.8571V81.0716H31.0527V75.8571H29.1885V74.9041H33.9544V75.8571H32.0903Z" fill="white"/>
<path d="M37.3974 75.8571V81.0716H36.3598V75.8571H34.4957V74.9041H39.2615V75.8571H37.3974Z" fill="white"/>
<path d="M42.4931 74.9041C43.4252 74.9041 44.1052 75.0836 44.5331 75.4424C44.961 75.8012 45.175 76.3541 45.175 77.1011C45.175 77.8482 44.9552 78.3952 44.5155 78.7423C44.0817 79.0893 43.4135 79.2628 42.5107 79.2628H41.4203V81.0716H40.3828V74.9041H42.4931ZM42.625 78.3187C43.1995 78.3187 43.5893 78.2099 43.7945 77.9923C44.0055 77.7688 44.111 77.4452 44.111 77.0217C44.111 76.5923 43.9791 76.2894 43.7153 76.1129C43.4516 75.9365 43.0383 75.8482 42.4755 75.8482H41.4203V78.3187H42.625Z" fill="white"/>
<path d="M50.6532 75.716C50.3542 75.716 50.108 75.7778 49.9146 75.9013C49.7211 76.0248 49.6244 76.2131 49.6244 76.466C49.6244 76.713 49.7211 76.9042 49.9146 77.0395C50.108 77.1689 50.5184 77.3101 51.1456 77.463C51.7787 77.616 52.2535 77.8307 52.5701 78.1071C52.8925 78.3836 53.0537 78.7924 53.0537 79.3336C53.0537 79.8688 52.8515 80.3041 52.447 80.6394C52.0425 80.9747 51.512 81.1423 50.8554 81.1423C49.894 81.1423 49.0411 80.81 48.2966 80.1453L48.9473 79.36C49.5687 79.9012 50.2135 80.1718 50.8818 80.1718C51.2159 80.1718 51.4797 80.1012 51.6732 79.96C51.8725 79.813 51.9722 79.6218 51.9722 79.3865C51.9722 79.1453 51.8784 78.96 51.6908 78.8306C51.5091 78.6953 51.1925 78.5748 50.7411 78.4689C50.2897 78.3571 49.9468 78.2571 49.7123 78.1689C49.4778 78.0748 49.2697 77.9542 49.088 77.8071C48.7246 77.5307 48.5428 77.1071 48.5428 76.5366C48.5428 75.966 48.748 75.5278 49.1584 75.2219C49.5746 74.9102 50.0875 74.7543 50.6972 74.7543C51.0899 74.7543 51.4797 74.819 51.8666 74.9484C52.2535 75.0778 52.5877 75.2601 52.8691 75.4954L52.3151 76.2807C52.1334 76.116 51.8872 75.9807 51.5765 75.8748C51.2658 75.769 50.958 75.716 50.6532 75.716Z" fill="white"/>
<path d="M58.6626 74.9041V75.8835H55.3827V77.5158H58.3284V78.4423H55.3827V80.0922H58.7681V81.0716H54.3452V74.9041H58.6626Z" fill="white"/>
<path d="M65.0052 76.907C65.0052 77.9246 64.5626 78.5658 63.6774 78.8305L65.2866 81.0716H63.9676L62.4992 78.9981H61.1362V81.0716H60.0986V74.9041H62.3848C63.3228 74.9041 63.994 75.063 64.3985 75.3806C64.803 75.6982 65.0052 76.207 65.0052 76.907ZM62.4288 78.054C63.015 78.054 63.4136 77.9629 63.6247 77.7805C63.8357 77.5982 63.9412 77.307 63.9412 76.907C63.9412 76.5012 63.8328 76.2247 63.6159 76.0776C63.399 75.9247 63.0121 75.8482 62.4552 75.8482H61.1362V78.054H62.4288Z" fill="white"/>
<path d="M69.2235 81.0716H68.0628L65.5919 74.9041H66.7526L68.6431 79.5099L70.5337 74.9041H71.6944L69.2235 81.0716Z" fill="white"/>
<path d="M76.8845 74.9041V75.8835H73.6047V77.5158H76.5504V78.4423H73.6047V80.0922H76.99V81.0716H72.5671V74.9041H76.8845Z" fill="white"/>
<path d="M83.2268 76.907C83.2268 77.9246 82.7842 78.5658 81.8991 78.8305L83.5082 81.0716H82.1892L80.7208 78.9981H79.3578V81.0716H78.3203V74.9041H80.6065C81.5444 74.9041 82.2156 75.063 82.6201 75.3806C83.0246 75.6982 83.2268 76.207 83.2268 76.907ZM80.6504 78.054C81.2366 78.054 81.6353 77.9629 81.8463 77.7805C82.0573 77.5982 82.1629 77.307 82.1629 76.907C82.1629 76.5012 82.0544 76.2247 81.8375 76.0776C81.6206 75.9247 81.2337 75.8482 80.6768 75.8482H79.3578V78.054H80.6504Z" fill="white"/>
<path d="M89.2408 74.9041C90.1729 74.9041 90.8529 75.0836 91.2809 75.4424C91.7088 75.8012 91.9228 76.3541 91.9228 77.1011C91.9228 77.8482 91.7029 78.3952 91.2633 78.7423C90.8295 79.0893 90.1612 79.2628 89.2584 79.2628H88.1681V81.0716H87.1305V74.9041H89.2408ZM89.3727 78.3187C89.9472 78.3187 90.3371 78.2099 90.5422 77.9923C90.7533 77.7688 90.8588 77.4452 90.8588 77.0217C90.8588 76.5923 90.7269 76.2894 90.4631 76.1129C90.1993 75.9365 89.786 75.8482 89.2233 75.8482H88.1681V78.3187H89.3727Z" fill="white"/>
<path d="M98.0479 76.907C98.0479 77.9246 97.6053 78.5658 96.7202 78.8305L98.3293 81.0716H97.0103L95.5419 78.9981H94.1789V81.0716H93.1414V74.9041H95.4276C96.3655 74.9041 97.0367 75.063 97.4412 75.3806C97.8457 75.6982 98.0479 76.207 98.0479 76.907ZM95.4715 78.054C96.0577 78.054 96.4564 77.9629 96.6674 77.7805C96.8784 77.5982 96.984 77.307 96.984 76.907C96.984 76.5012 96.8755 76.2247 96.6586 76.0776C96.4417 75.9247 96.0548 75.8482 95.4979 75.8482H94.1789V78.054H95.4715Z" fill="white"/>
<path d="M103.926 76.3601C103.51 75.9248 102.997 75.7072 102.387 75.7072C101.778 75.7072 101.262 75.9248 100.84 76.3601C100.424 76.7954 100.216 77.3248 100.216 77.9483C100.216 78.5659 100.424 79.0924 100.84 79.5277C101.262 79.963 101.778 80.1806 102.387 80.1806C102.997 80.1806 103.51 79.963 103.926 79.5277C104.348 79.0924 104.559 78.5659 104.559 77.9483C104.559 77.3248 104.348 76.7954 103.926 76.3601ZM104.691 80.2247C104.07 80.8306 103.302 81.1335 102.387 81.1335C101.473 81.1335 100.705 80.8306 100.084 80.2247C99.4622 79.613 99.1516 78.8542 99.1516 77.9483C99.1516 77.0366 99.4622 76.2778 100.084 75.6719C100.705 75.0601 101.473 74.7543 102.387 74.7543C103.302 74.7543 104.07 75.0601 104.691 75.6719C105.313 76.2778 105.623 77.0366 105.623 77.9483C105.623 78.8542 105.313 79.613 104.691 80.2247Z" fill="white"/>
<path d="M106.946 75.8394V74.9041H109.935V78.9717C109.935 79.6893 109.754 80.2275 109.39 80.5863C109.027 80.9451 108.561 81.1245 107.992 81.1245C107.277 81.1245 106.667 80.8716 106.163 80.3657L106.752 79.5452C107.151 79.9275 107.541 80.1187 107.922 80.1187C108.191 80.1187 108.42 80.0275 108.608 79.8452C108.801 79.6628 108.898 79.3893 108.898 79.0246V75.8394H106.946Z" fill="white"/>
<path d="M115.904 74.9041V75.8835H112.624V77.5158H115.57V78.4423H112.624V80.0922H116.009V81.0716H111.587V74.9041H115.904Z" fill="white"/>
<path d="M120.145 80.1276C120.502 80.1276 120.81 80.0688 121.068 79.9512C121.326 79.8277 121.596 79.6335 121.877 79.3688L122.545 80.0571C121.895 80.7806 121.103 81.1423 120.171 81.1423C119.245 81.1423 118.474 80.8423 117.858 80.2424C117.249 79.6424 116.944 78.8836 116.944 77.9659C116.944 77.0483 117.255 76.2836 117.876 75.6719C118.503 75.0601 119.292 74.7543 120.241 74.7543C121.197 74.7543 121.994 75.1072 122.633 75.8131L121.974 76.5366C121.681 76.2542 121.402 76.0572 121.138 75.9454C120.88 75.8337 120.576 75.7778 120.224 75.7778C119.602 75.7778 119.081 75.9807 118.659 76.3866C118.237 76.7866 118.026 77.3013 118.026 77.9307C118.026 78.5542 118.234 79.0777 118.65 79.5012C119.072 79.9188 119.57 80.1276 120.145 80.1276Z" fill="white"/>
<path d="M126.136 75.8571V81.0716H125.098V75.8571H123.234V74.9041H128V75.8571H126.136Z" fill="white"/>
<defs>
<linearGradient id="paint0_linear_1_152" x1="18.3908" y1="43.6701" x2="28.6164" y2="40.8368" gradientUnits="userSpaceOnUse">
<stop stop-color="#F59723"/>
<stop offset="0.3123" stop-color="#F69822"/>
<stop offset="0.8383" stop-color="#E87726"/>
</linearGradient>
<linearGradient id="paint1_linear_1_152" x1="-3.98094" y1="89.6974" x2="16.9243" y2="45.0184" gradientUnits="userSpaceOnUse">
<stop offset="0.3233" stop-color="#9C2063"/>
<stop offset="0.6302" stop-color="#C82037"/>
<stop offset="0.7514" stop-color="#CC2135"/>
<stop offset="1" stop-color="#E87726"/>
</linearGradient>
<linearGradient id="paint2_linear_1_152" x1="2.99451" y1="86.3872" x2="15.452" y2="59.7628" gradientUnits="userSpaceOnUse">
<stop stop-color="#282661"/>
<stop offset="0.0954839" stop-color="#662E8C"/>
<stop offset="0.7882" stop-color="#9E2064"/>
<stop offset="0.9487" stop-color="#CC2032"/>
</linearGradient>
<linearGradient id="paint3_linear_1_152" x1="-3.23172" y1="86.9892" x2="17.6736" y2="42.3102" gradientUnits="userSpaceOnUse">
<stop offset="0.3233" stop-color="#9C2063"/>
<stop offset="0.6302" stop-color="#C82037"/>
<stop offset="0.7514" stop-color="#CC2135"/>
<stop offset="1" stop-color="#E87726"/>
</linearGradient>
<linearGradient id="paint4_linear_1_152" x1="-1.11084" y1="84.0098" x2="9.87552" y2="60.5296" gradientUnits="userSpaceOnUse">
<stop stop-color="#282661"/>
<stop offset="0.0954839" stop-color="#662E8C"/>
<stop offset="0.7882" stop-color="#9E2064"/>
<stop offset="0.9487" stop-color="#CC2032"/>
</linearGradient>
<linearGradient id="paint5_linear_1_152" x1="1.38388" y1="89.1488" x2="22.2892" y2="44.4698" gradientUnits="userSpaceOnUse">
<stop offset="0.3233" stop-color="#9C2063"/>
<stop offset="0.6302" stop-color="#C82037"/>
<stop offset="0.7514" stop-color="#CC2135"/>
<stop offset="1" stop-color="#E87726"/>
</linearGradient>
<linearGradient id="paint6_linear_1_152" x1="-0.136434" y1="91.8155" x2="20.7688" y2="47.1366" gradientUnits="userSpaceOnUse">
<stop offset="0.3233" stop-color="#9C2063"/>
<stop offset="0.6302" stop-color="#C82037"/>
<stop offset="0.7514" stop-color="#CC2135"/>
<stop offset="1" stop-color="#E87726"/>
</linearGradient>
<linearGradient id="paint7_linear_1_152" x1="2.75374" y1="89.7895" x2="23.659" y2="45.1105" gradientUnits="userSpaceOnUse">
<stop offset="0.3233" stop-color="#9C2063"/>
<stop offset="0.6302" stop-color="#C82037"/>
<stop offset="0.7514" stop-color="#CC2135"/>
<stop offset="1" stop-color="#E87726"/>
</linearGradient>
<linearGradient id="paint8_linear_1_152" x1="2.59893" y1="89.7177" x2="23.5041" y2="45.0385" gradientUnits="userSpaceOnUse">
<stop offset="0.3233" stop-color="#9C2063"/>
<stop offset="0.6302" stop-color="#C82037"/>
<stop offset="0.7514" stop-color="#CC2135"/>
<stop offset="1" stop-color="#E87726"/>
</linearGradient>
<linearGradient id="paint9_linear_1_152" x1="13.6222" y1="65.891" x2="19.4641" y2="53.3688" gradientUnits="userSpaceOnUse">
<stop offset="0.3233" stop-color="#9C2063"/>
<stop offset="0.6302" stop-color="#C82037"/>
<stop offset="0.7514" stop-color="#CC2135"/>
<stop offset="1" stop-color="#E87726"/>
</linearGradient>
</defs>
</svg>
