<svg width="128" height="128" viewBox="0 0 128 128" fill="none" xmlns="http://www.w3.org/2000/svg">
<path d="M36.1961 53.4692C36.1961 55.0374 36.3656 56.3089 36.6623 57.2414C37.0014 58.1738 37.4252 59.191 38.0186 60.293C38.2305 60.6321 38.3153 60.9712 38.3153 61.2679C38.3153 61.6917 38.061 62.1155 37.51 62.5394L34.8398 64.3195C34.4583 64.5738 34.0769 64.701 33.7378 64.701C33.314 64.701 32.8901 64.489 32.4663 64.1076C31.8729 63.4718 31.3643 62.7937 30.9404 62.1155C30.5166 61.395 30.0928 60.5897 29.6265 59.6149C26.3206 63.5142 22.1669 65.4639 17.1656 65.4639C13.6053 65.4639 10.7656 64.4467 8.68879 62.4122C6.61197 60.3778 5.55237 57.6652 5.55237 54.2745C5.55237 50.6718 6.82389 47.7473 9.40932 45.5434C11.9948 43.3394 15.4279 42.2374 19.7934 42.2374C21.2345 42.2374 22.7179 42.3645 24.2861 42.5765C25.8544 42.7884 27.465 43.1275 29.1603 43.5089V40.4149C29.1603 37.1937 28.4822 34.9473 27.1683 33.6334C25.812 32.3195 23.5232 31.6837 20.2597 31.6837C18.7762 31.6837 17.2504 31.8533 15.6822 32.2347C14.114 32.6162 12.5881 33.0824 11.1047 33.6758C10.4265 33.9725 9.91793 34.142 9.62124 34.2268C9.32455 34.3116 9.11263 34.3539 8.9431 34.3539C8.34972 34.3539 8.05303 33.9301 8.05303 33.04V30.9632C8.05303 30.2851 8.1378 29.7765 8.34972 29.4798C8.56164 29.1831 8.9431 28.8864 9.53647 28.5897C11.0199 27.8268 12.8001 27.191 14.8769 26.6824C16.9537 26.1314 19.1577 25.8771 21.4888 25.8771C26.5325 25.8771 30.2199 27.0215 32.5934 29.3102C34.9246 31.599 36.1113 35.0745 36.1113 39.7367V53.4692H36.1961ZM18.9881 59.9116C20.3868 59.9116 21.8279 59.6573 23.3537 59.1486C24.8795 58.64 26.2358 57.7076 27.3802 56.4361C28.0583 55.6308 28.5669 54.7407 28.8212 53.7235C29.0755 52.7063 29.2451 51.4771 29.2451 50.0361V48.2559C28.0159 47.9592 26.702 47.7049 25.3457 47.5354C23.9895 47.3659 22.6755 47.2811 21.3616 47.2811C18.5219 47.2811 16.4451 47.8321 15.0464 48.9765C13.6477 50.1208 12.9696 51.7314 12.9696 53.8506C12.9696 55.8427 13.4782 57.3261 14.5378 58.3433C15.555 59.403 17.0385 59.9116 18.9881 59.9116ZM53.0226 64.489C52.2597 64.489 51.751 64.3619 51.412 64.0652C51.0729 63.8109 50.7762 63.2175 50.5219 62.4122L40.5616 29.6493C40.3073 28.8016 40.1802 28.2506 40.1802 27.9539C40.1802 27.2758 40.5193 26.8943 41.1974 26.8943H45.351C46.1563 26.8943 46.7073 27.0215 47.004 27.3182C47.3431 27.5725 47.5974 28.1659 47.8517 28.9712L54.9722 57.0294L61.5842 28.9712C61.7961 28.1235 62.0504 27.5725 62.3895 27.3182C62.7285 27.0639 63.3219 26.8943 64.0848 26.8943H67.4755C68.2808 26.8943 68.8318 27.0215 69.1709 27.3182C69.51 27.5725 69.8067 28.1659 69.9762 28.9712L76.6729 57.3685L84.0053 28.9712C84.2597 28.1235 84.5563 27.5725 84.853 27.3182C85.1921 27.0639 85.7431 26.8943 86.506 26.8943H90.4477C91.1259 26.8943 91.5073 27.2334 91.5073 27.9539C91.5073 28.1659 91.465 28.3778 91.4226 28.6321C91.3802 28.8864 91.2954 29.2255 91.1259 29.6917L80.9113 62.4546C80.657 63.3023 80.3603 63.8533 80.0212 64.1076C79.6822 64.3619 79.1312 64.5314 78.4107 64.5314H74.7656C73.9603 64.5314 73.4093 64.4043 73.0703 64.1076C72.7312 63.8109 72.4345 63.2599 72.265 62.4122L65.6954 35.0745L59.1683 62.3698C58.9563 63.2175 58.702 63.7685 58.363 64.0652C58.0239 64.3619 57.4305 64.489 56.6676 64.489H53.0226ZM107.486 65.6334C105.282 65.6334 103.078 65.3791 100.959 64.8705C98.8398 64.3619 97.1868 63.8109 96.0848 63.1751C95.4067 62.7937 94.9404 62.3698 94.7709 61.9884C94.6014 61.6069 94.5166 61.1831 94.5166 60.8016V58.64C94.5166 57.75 94.8557 57.3261 95.4914 57.3261C95.7458 57.3261 96.0001 57.3685 96.2544 57.4533C96.5087 57.5381 96.8901 57.7076 97.314 57.8771C98.755 58.5129 100.323 59.0215 101.976 59.3606C103.672 59.6996 105.325 59.8692 107.02 59.8692C109.69 59.8692 111.767 59.403 113.208 58.4705C114.649 57.5381 115.412 56.1818 115.412 54.444C115.412 53.2573 115.031 52.2824 114.268 51.4771C113.505 50.6718 112.064 49.9513 109.987 49.2732L103.841 47.3659C100.747 46.391 98.4583 44.95 97.0597 43.0427C95.661 41.1778 94.9405 39.101 94.9405 36.897C94.9405 35.1169 95.3219 33.5486 96.0848 32.1924C96.8477 30.8361 97.865 29.6493 99.1365 28.7169C100.408 27.742 101.849 27.0215 103.544 26.5129C105.24 26.0043 107.02 25.7924 108.885 25.7924C109.817 25.7924 110.792 25.8347 111.725 25.9619C112.699 26.089 113.589 26.2586 114.48 26.4281C115.327 26.64 116.133 26.852 116.895 27.1063C117.658 27.3606 118.252 27.6149 118.676 27.8692C119.269 28.2083 119.693 28.5473 119.947 28.9288C120.201 29.2679 120.329 29.7341 120.329 30.3275V32.3195C120.329 33.2096 119.989 33.6758 119.354 33.6758C119.015 33.6758 118.464 33.5063 117.743 33.1672C115.327 32.0652 112.615 31.5142 109.605 31.5142C107.189 31.5142 105.282 31.8957 103.968 32.701C102.654 33.5063 101.976 34.7354 101.976 36.4732C101.976 37.6599 102.4 38.6771 103.248 39.4824C104.095 40.2877 105.664 41.093 107.91 41.8136L113.929 43.7208C116.98 44.6957 119.184 46.052 120.498 47.7897C121.812 49.5275 122.448 51.5195 122.448 53.7235C122.448 55.546 122.066 57.199 121.346 58.64C120.583 60.0811 119.566 61.3526 118.252 62.3698C116.938 63.4294 115.37 64.1924 113.547 64.7434C111.64 65.3367 109.648 65.6334 107.486 65.6334Z" fill="white"/>
<path d="M115.497 86.2321C101.552 96.5314 81.2927 101.999 63.8729 101.999C39.4596 101.999 17.4623 92.9711 0.847706 77.9672C-0.466202 76.7804 0.720553 75.1698 2.28877 76.1023C20.2596 86.5288 42.4265 92.844 65.3563 92.844C80.8265 92.844 97.8225 89.6228 113.462 83.0109C115.793 81.9513 117.785 84.5367 115.497 86.2321ZM121.303 79.6202C119.523 77.3314 109.521 78.5182 104.985 79.0692C103.629 79.2387 103.417 78.0519 104.646 77.1619C112.615 71.5672 125.711 73.1778 127.237 75.0427C128.763 76.95 126.813 90.0466 119.354 96.3195C118.209 97.2943 117.107 96.7857 117.616 95.5142C119.311 91.3182 123.083 81.8665 121.303 79.6202Z" fill="#FF9900"/>
</svg>
