<svg width="128" height="128" viewBox="0 0 128 128" fill="none" xmlns="http://www.w3.org/2000/svg">
<path d="M63.724 110.725V92.543C83.076 92.543 98.006 73.535 90.541 53.425C87.776 45.987 81.971 39.926 74.229 37.171C54.324 30.009 35.247 44.885 35.247 63.893H17C17 33.59 46.582 9.62302 78.93 19.541C93.03 23.948 104.088 34.968 108.512 49.017C118.465 81.248 94.412 110.725 63.724 110.725Z" fill="#0080FF"/>
<path d="M64 92.543H45.753V74.637H64V92.543ZM45.753 106.593H31.929V92.543H45.753V106.593ZM31.929 92.543H20.318V80.973H31.929V92.543Z" fill="#0080FF"/>
</svg>
