<svg width="128" height="128" viewBox="0 0 128 128" fill="none" xmlns="http://www.w3.org/2000/svg">
<path fill-rule="evenodd" clip-rule="evenodd" d="M73.8 50.8H85.1V62.3H90.8C93.4 62.3 96.1 61.8 98.6 61C99.8 60.6 101.2 60 102.4 59.3C100.8 57.2 100 54.6 99.8 52C99.5 48.5 100.2 43.9 102.6 41.2L103.8 39.8L105.2 40.9C108.8 43.8 111.7 47.7 112.3 52.3C116.6 51 121.6 51.3 125.4 53.5L126.9 54.4L126.1 56C122.9 62.2 116.2 64.2 109.7 63.8C99.9 88.1 78.7 99.6 52.9 99.6C39.6 99.6 27.4 94.6 20.4 82.8L20.3 82.6L19.3 80.5C16.9 75.3 16.2 69.6 16.7 63.9L16.9 62.2H26.5V50.8H37.8V39.6H60.3V28.3H73.8V50.8Z" fill="#3A4D54"/>
<path d="M110.4 55.1C111.2 49.2 106.8 44.6 104 42.4C100.9 46 100.4 55.6 105.3 59.6C102.5 62 96.8 64.3 90.8 64.3H18.6C18 70.5 19.1 76.2 21.6 81.1L22.4 82.6C22.9 83.5 23.5 84.3 24.1 85.2C27.1 85.4 29.8 85.5 32.3 85.4C37.2 85.3 41.2 84.7 44.3 83.7C44.8 83.5 45.2 83.8 45.4 84.2C45.6 84.7 45.3 85.1 44.9 85.3C44.5 85.4 44.1 85.6 43.6 85.7C41.2 86.4 38.6 86.8 35.3 87H34.7C33.4 87.1 32 87.1 30.5 87.1C28.9 87.1 27.4 87.1 25.6 87C31.6 93.8 41 97.8 52.8 97.8C77.8 97.8 99 86.7 108.3 61.9C115 62.6 121.4 60.9 124.3 55.2C119.8 52.5 113.8 53.4 110.4 55.1Z" fill="#00AADA"/>
<path d="M110.4 55.1C111.2 49.2 106.8 44.6 104 42.4C100.9 46 100.4 55.6 105.3 59.6C102.5 62 96.8 64.3 90.8 64.3H22.8C22.5 73.8 26 81 32.3 85.3C37.2 85.2 41.2 84.6 44.3 83.6C44.8 83.4 45.2 83.7 45.4 84.1C45.6 84.6 45.3 85 44.9 85.2C44.5 85.3 44.1 85.5 43.6 85.6C41.2 86.3 38.4 86.8 35.1 87L35 86.9C43.5 91.3 55.8 91.2 70 85.8C85.8 79.7 100.6 68.1 110.9 54.9C110.7 55 110.5 55 110.4 55.1Z" fill="#28B8EB"/>
<path d="M18.7 71.8C19.1 75.1 20.1 78.2 21.6 81.1L22.4 82.6C22.9 83.5 23.5 84.3 24.1 85.2C27.1 85.4 29.8 85.5 32.3 85.4C37.2 85.3 41.2 84.7 44.3 83.7C44.8 83.5 45.2 83.8 45.4 84.2C45.6 84.7 45.3 85.1 44.9 85.3C44.5 85.4 44.1 85.6 43.6 85.7C41.2 86.4 38.4 86.9 35.1 87.1H34.7C33.4 87.2 32 87.2 30.6 87.2C29 87.2 27.4 87.2 25.7 87.1C31.7 93.9 41.2 97.9 53 97.9C74.4 97.9 93 89.8 103.8 71.9H18.7V71.8Z" fill="#028BB8"/>
<path d="M23.5 71.8C24.8 77.6 27.8 82.2 32.3 85.3C37.2 85.2 41.2 84.6 44.3 83.6C44.8 83.4 45.2 83.7 45.4 84.1C45.6 84.6 45.3 85 44.9 85.2C44.5 85.3 44.1 85.5 43.6 85.6C41.2 86.3 38.4 86.8 35 87C43.5 91.4 55.8 91.3 69.9 85.9C78.4 82.6 86.7 77.7 94.1 71.8H23.5Z" fill="#019BC6"/>
<path fill-rule="evenodd" clip-rule="evenodd" d="M28.4 52.7H38.2V62.5H28.4V52.7ZM29.2 53.5H30V61.6H29.2V53.5ZM30.6 53.5H31.4V61.6H30.6V53.5ZM32.1 53.5H32.9V61.6H32.1V53.5ZM33.6 53.5H34.4V61.6H33.6V53.5ZM35.1 53.5H35.9V61.6H35.1V53.5ZM36.6 53.5H37.4V61.6H36.6V53.5ZM39.6 41.5H49.4V51.3H39.6V41.5ZM40.5 42.3H41.3V50.4H40.5V42.3ZM41.9 42.3H42.7V50.4H41.9V42.3ZM43.4 42.3H44.2V50.4H43.4V42.3ZM44.9 42.3H45.7V50.4H44.9V42.3ZM46.3 42.3H47.1V50.4H46.3V42.3ZM47.8 42.3H48.6V50.4H47.8V42.3Z" fill="#00ACD3"/>
<path fill-rule="evenodd" clip-rule="evenodd" d="M39.6 52.7H49.4V62.5H39.6V52.7ZM40.5 53.5H41.3V61.6H40.5V53.5ZM41.9 53.5H42.7V61.6H41.9V53.5ZM43.4 53.5H44.2V61.6H43.4V53.5ZM44.9 53.5H45.7V61.6H44.9V53.5ZM46.3 53.5H47.1V61.6H46.3V53.5ZM47.8 53.5H48.6V61.6H47.8V53.5Z" fill="#23C2EE"/>
<path fill-rule="evenodd" clip-rule="evenodd" d="M50.9 52.7H60.7V62.5H50.9V52.7ZM51.7 53.5H52.5V61.6H51.7V53.5ZM53.2 53.5H54V61.6H53.2V53.5ZM54.7 53.5H55.5V61.6H54.7V53.5ZM56.1 53.5H56.9V61.6H56.1V53.5ZM57.6 53.5H58.4V61.6H57.6V53.5ZM59.1 53.5H59.9V61.6H59.1V53.5Z" fill="#00ACD3"/>
<path fill-rule="evenodd" clip-rule="evenodd" d="M50.9 41.5H60.7V51.3H50.9V41.5ZM51.7 42.3H52.5V50.4H51.7V42.3ZM53.2 42.3H54V50.4H53.2V42.3ZM54.7 42.3H55.5V50.4H54.7V42.3ZM56.1 42.3H56.9V50.4H56.1V42.3ZM57.6 42.3H58.4V50.4H57.6V42.3ZM59.1 42.3H59.9V50.4H59.1V42.3ZM62.2 52.7H72V62.5H62.2V52.7ZM63 53.5H63.8V61.6H63V53.5ZM64.5 53.5H65.3V61.6H64.5V53.5ZM65.9 53.5H66.7V61.6H65.9V53.5ZM67.4 53.5H68.2V61.6H67.4V53.5ZM68.9 53.5H69.7V61.6H68.9V53.5ZM70.4 53.5H71.2V61.6H70.4V53.5Z" fill="#23C2EE"/>
<path fill-rule="evenodd" clip-rule="evenodd" d="M62.2 41.5H72V51.3H62.2V41.5ZM63 42.3H63.8V50.4H63V42.3ZM64.5 42.3H65.3V50.4H64.5V42.3ZM65.9 42.3H66.7V50.4H65.9V42.3ZM67.4 42.3H68.2V50.4H67.4V42.3ZM68.9 42.3H69.7V50.4H68.9V42.3ZM70.4 42.3H71.2V50.4H70.4V42.3Z" fill="#00ACD3"/>
<path fill-rule="evenodd" clip-rule="evenodd" d="M62.2 30.2H72V40H62.2V30.2ZM63 31H63.8V39.1H63V31ZM64.5 31H65.3V39.1H64.5V31ZM65.9 31H66.7V39.1H65.9V31ZM67.4 31H68.2V39.1H67.4V31ZM68.9 31H69.7V39.1H68.9V31ZM70.4 31H71.2V39.1H70.4V31Z" fill="#23C2EE"/>
<path fill-rule="evenodd" clip-rule="evenodd" d="M73.5 52.7H83.3V62.5H73.5V52.7ZM74.3 53.5H75.1V61.6H74.3V53.5ZM75.7 53.5H76.5V61.6H75.7V53.5ZM77.2 53.5H78V61.6H77.2V53.5ZM78.7 53.5H79.5V61.6H78.7V53.5ZM80.2 53.5H81V61.6H80.2V53.5ZM81.7 53.5H82.5V61.6H81.7V53.5Z" fill="#00ACD3"/>
<path fill-rule="evenodd" clip-rule="evenodd" d="M48.8 78.3C50.3 78.3 51.5 79.5 51.5 81C51.5 82.5 50.3 83.7 48.8 83.7C47.3 83.7 46.1 82.5 46.1 81C46.1 79.5 47.3 78.3 48.8 78.3Z" fill="#D4EEF1"/>
<path fill-rule="evenodd" clip-rule="evenodd" d="M48.8 79.1C49 79.1 49.3 79.1 49.5 79.2C49.3 79.3 49.1 79.6 49.1 79.9C49.1 80.3 49.5 80.7 49.9 80.7C50.2 80.7 50.5 80.5 50.6 80.3C50.7 80.5 50.7 80.8 50.7 81C50.7 82.1 49.8 82.9 48.8 82.9C47.7 82.9 46.9 82 46.9 81C46.9 80 47.7 79.1 48.8 79.1ZM1.09998 72.8H126.5C123.8 72.1 117.9 71.2 118.8 67.6C113.8 73.3 101.9 71.6 98.8 68.8C95.4 73.7 75.8 71.8 74.5 68C70.3 73 57.2 73 53 68C51.6 71.8 32 73.7 28.7 68.8C25.7 71.6 13.7 73.3 8.69998 67.6C9.79998 71.1 3.79998 72.1 1.09998 72.8Z" fill="#3A4D54"/>
<path d="M56 97.8C49.3 94.6 45.7 90.3 43.6 85.6C41.1 86.3 38.1 86.8 34.7 87C33.4 87.1 32 87.1 30.6 87.1C28.9 87.1 27.2 87.1 25.4 87C31.4 93 39 97.7 52.9 97.8H56Z" fill="#BFDBE0"/>
<path d="M46.1 89.9C45.2 88.6 44.3 87.1 43.6 85.6C41.1 86.3 38.1 86.8 34.7 87C37 88.2 40.4 89.4 46.1 89.9Z" fill="#D4EEF1"/>
</svg>
