<svg width="128" height="128" viewBox="0 0 128 128" fill="none" xmlns="http://www.w3.org/2000/svg">
<path d="M18.7671 82.685C16.7241 81.079 14.5431 79.539 13.0541 77.368C9.91906 73.54 7.50606 69.11 5.85606 64.454C4.85806 61.426 4.51706 58.179 3.23106 55.269C1.88706 53.155 3.46206 50.844 5.77806 50.172C6.80806 49.974 8.62106 49.001 6.43306 49.696C4.47106 51.136 4.28206 48.39 6.29406 48.215C7.66606 48.034 8.17206 46.91 7.70206 45.899C6.22806 44.937 11.2761 43.882 8.73606 42.447C6.09106 39.592 12.4361 39.043 10.8711 42.285C10.4961 44.777 15.3061 41.827 14.1891 44.706C15.3241 46.089 18.4371 45.021 18.3591 46.96C20.0111 47.074 20.5791 48.463 22.1291 48.57C23.7371 49.297 26.6501 49.868 27.1971 51.68C25.6031 52.941 21.9111 49.072 21.7331 52.566C22.2151 57.729 22.0911 63.046 23.9811 67.962C24.8741 70.94 27.0401 73.282 28.9961 75.602C30.8681 77.873 33.4031 79.471 35.9871 80.816C38.2531 81.885 40.6961 82.593 43.1671 83.039C44.1681 82.273 45.9381 79.425 47.5001 80.626C47.5751 81.976 44.3991 83.448 47.3511 83.3C49.0851 82.775 50.2871 84.64 51.7151 82.957C53.0301 84.515 57.1821 81.963 56.2461 85.147C54.9791 85.963 53.1341 85.468 51.8671 86.594C49.7771 85.549 48.1141 87.527 45.7991 87.279C43.2301 87.737 40.6151 87.924 38.0101 87.927C33.7361 87.59 29.3721 87.447 25.3071 85.96C23.0141 85.294 20.7801 83.988 18.7671 82.685ZM22.3751 84.25C24.6111 85.216 26.7981 86.235 29.2491 86.543C33.1381 87.083 37.1541 87.916 41.0571 87.158C39.2901 86.36 37.4641 87.466 35.7041 86.587C33.5941 87.042 31.3291 86.472 29.1831 86.191C26.7441 85.105 24.1111 84.357 21.8261 82.946C18.9711 81.903 23.3021 84.284 24.0741 84.477C25.8581 85.49 22.1121 83.957 21.5831 83.537C20.0881 82.698 19.8971 82.873 21.4351 83.725C21.7451 83.904 22.0511 84.096 22.3751 84.25ZM18.1191 81.242C20.2871 82.046 18.1101 79.718 17.1181 79.853C16.6781 79.089 15.4361 78.607 16.3121 78.198C14.7381 78.745 14.6621 76.119 13.9231 76.494C12.2561 75.968 13.2751 74.104 11.2891 72.96C11.1081 71.754 9.31806 70.709 8.74706 68.89C8.49506 67.958 6.72306 65.285 7.81106 67.772C8.73706 70.168 10.3661 72.221 11.7241 74.27C12.7761 76.22 14.0201 78.261 15.9371 79.478C16.5831 80.098 17.2071 81.048 18.1191 81.242ZM11.8771 74.387C11.9511 74.06 12.2731 75.095 11.8771 74.387V74.387ZM20.7161 82.205C20.0251 81.933 21.1951 81.988 20.7161 82.205V82.205ZM21.8921 82.633C21.3541 82.965 21.7711 82.04 21.8921 82.633V82.633ZM23.3651 83.246C22.2841 82.825 24.0651 82.579 23.3651 83.246V83.246ZM25.8891 84.653C24.5251 84.417 26.3151 84.025 25.8891 84.653V84.653ZM21.0421 81.275C19.6351 81.266 22.1301 80.57 21.0421 81.275V81.275ZM22.1461 81.826C21.7531 81.992 22.1151 81.454 22.1461 81.826V81.826ZM27.6671 85.272C28.5551 85.833 32.8511 86.499 30.1611 85.501C29.7101 85.597 25.1731 84.219 27.6671 85.272ZM18.9041 78.445C17.5241 78.033 18.8171 78.073 18.9041 78.445V78.445ZM21.4721 79.944C20.0841 79.584 22.1421 79.478 21.4721 79.944V79.944ZM23.6351 81.27C22.0781 80.906 24.5951 80.907 23.6351 81.27V81.27ZM17.8561 77.306C18.8981 78.106 22.0581 77.41 19.4511 76.83C18.2651 76.198 15.5931 75.766 17.4151 77.211L17.8561 77.306ZM25.0991 81.727C23.2791 81.305 25.5341 80.988 25.0991 81.727V81.727ZM22.8981 79.978C25.4441 80.699 20.7571 78.367 22.2701 79.713L22.6051 79.864L22.8981 79.978ZM27.3121 82.528C25.1331 82.196 29.7231 82.552 27.3121 82.528V82.528ZM16.9281 75.911C16.3341 75.948 16.8341 75.462 16.9281 75.911V75.911ZM31.3901 84.817C30.6041 85.421 31.4541 84.007 31.3901 84.817V84.817ZM21.0451 78.432C20.2911 78.413 20.8981 78.004 21.0451 78.432V78.432ZM17.1581 75.63C15.2611 75.021 18.5421 75.545 17.1581 75.63V75.63ZM12.5521 72.653C11.0461 71.46 12.3791 71.988 12.5521 72.653V72.653ZM24.6421 80.326C24.3891 80.036 24.5221 80.389 24.6421 80.326V80.326ZM32.1661 84.943C31.7561 85.11 32.1431 84.501 32.1661 84.943V84.943ZM23.9761 79.638C22.7951 79.464 24.1121 79.067 23.9761 79.638V79.638ZM18.3701 76.085C16.7191 75.388 19.4001 75.975 18.3701 76.085V76.085ZM27.8531 81.976C26.2881 81.667 29.4581 81.341 27.8531 81.976V81.976ZM22.9201 78.629C24.7701 78.867 20.7191 77.37 22.5131 78.494L22.9201 78.629ZM29.3501 82.583C31.0781 81.551 30.5081 85.001 32.2811 82.874C34.0291 81.597 30.7711 84.452 32.9251 83.102C34.4841 82.06 36.7861 83.596 38.2401 84.097C39.2851 84.046 40.3021 85.001 41.3751 84.419C43.4391 83.863 37.3381 83.595 38.9371 82.61C37.0491 83.159 35.6551 81.955 34.7251 80.745C32.6061 80.256 30.1591 79.172 29.1001 77.297C28.6681 76.594 29.7221 77.398 28.7271 76.247C27.4511 75.111 26.8141 73.821 25.9571 72.442C24.9341 71.897 24.8131 70.29 24.7101 72.388C24.7181 71.064 23.4741 70.172 23.1691 70.541C23.1641 69.265 24.5021 69.905 23.5651 68.961C23.3641 67.638 22.7001 66.261 22.5011 64.768C22.1921 64.047 22.4581 62.506 21.4431 64.135C21.0741 65.857 21.3211 62.02 21.8961 63.284C22.6491 61.992 21.6251 62.145 21.5831 62.323C22.0741 61.234 21.8941 59.689 21.4541 60.278C21.7151 59.123 21.8671 56.027 21.0631 56.577C21.5511 55.369 21.9891 51.049 19.8701 52.696C19.0121 52.709 17.5251 53.006 16.8241 53.356C19.0251 54.57 16.6021 53.795 15.7041 53.601C15.5881 54.726 14.7001 54.241 13.5901 54.251C15.3621 54.469 12.7271 56.064 11.7121 55.444C10.3911 56.074 12.8511 57.651 11.7381 58.138C11.8751 58.871 9.71506 57.872 9.88406 59.568C8.60206 59.027 9.70906 61.58 10.3501 60.716C12.5301 61.307 11.8841 62.651 11.9391 63.928C11.5841 64.673 10.1851 62.178 11.6271 62.294C10.4891 60.445 10.3691 61.626 9.42206 62.485C9.20306 62.546 11.8341 63.707 10.1831 64.28C11.6351 64.505 11.6781 65.775 11.9751 66.58C12.8471 67.49 12.6681 65.576 13.7131 66.67C13.0511 65.694 10.2101 63.924 12.4971 64.492C12.4851 63.512 12.0831 62.721 12.7851 62.74C13.4801 61.484 12.0571 65.84 13.6221 64.243C14.0561 64.053 14.1631 62.985 14.9421 64.344C16.0721 65.457 15.3511 66.263 13.7551 65.241C14.0401 66.212 15.8891 66.556 15.5411 68.07C15.9091 69.403 16.4251 68.912 16.8741 68.835C17.2261 70.129 17.4271 69.178 17.4431 68.563C19.0551 68.908 18.6771 69.861 19.1831 70.528C20.2951 71.028 17.5921 67.128 19.5001 69.355C21.5071 71.167 20.2531 71.922 18.4521 71.633C19.5921 71.54 19.9591 73.174 21.3861 73.117C22.6871 73.735 23.5681 76.111 21.3251 75.122C20.5481 74.42 17.7951 73.556 20.0451 74.89C22.1201 75.851 23.7691 76.425 25.7711 77.633C27.2031 78.654 27.8221 79.825 28.3651 80.06C27.1611 80.632 24.7371 79.599 26.5371 79.283C25.4131 79.08 24.1501 78.51 25.2251 79.91C26.1411 80.674 28.4661 80.595 28.8841 80.68C28.5301 81.457 27.9241 81.52 28.8971 81.58C27.8141 82.161 29.2501 82.252 29.3501 82.583ZM27.1271 76.306C26.4651 75.614 26.2931 74.32 27.0091 75.445C27.3761 75.593 28.1841 77.561 27.1271 76.306ZM34.3661 80.903C34.3791 81.217 34.7791 80.876 34.3661 80.903V80.903ZM26.0831 74.608C26.0571 73.563 26.3221 75.415 26.0831 74.608V74.608ZM25.3641 73.642C24.5311 72.035 26.4131 74.096 25.3641 73.642V73.642ZM16.6441 67.624C16.8851 68.458 17.1331 67.493 16.6441 67.624V67.624ZM23.5841 71.384C23.8841 70.257 23.9371 72.329 23.5841 71.384V71.384ZM18.6811 67.975C18.3361 67.354 19.4041 68.559 18.6811 67.975V67.975ZM22.8881 69.324C22.1001 67.558 23.4481 68.359 23.0631 69.613L22.8881 69.324ZM15.6321 64.485C15.2801 63.906 14.6971 62.207 14.8861 61.687C15.0541 62.533 16.6821 65.324 15.6831 62.843C14.5801 60.764 17.0021 63.516 17.2511 64.037C17.3681 64.553 16.5701 63.896 17.1101 65.106C16.1261 63.729 16.5301 65.867 15.6321 64.485ZM13.3911 62.939C13.4831 61.592 13.9031 63.862 13.3911 62.939V62.939ZM14.3991 63.288C14.8801 62.271 15.2141 64.705 14.3991 63.288V63.288ZM11.9721 61.41C11.1381 60.579 10.5341 59.816 12.0131 60.896C12.5811 60.917 10.7461 59.155 12.1491 60.335C13.6241 60.605 12.8771 62.754 11.9721 61.41ZM13.2471 61.377C13.5041 61.85 13.7321 60.896 13.2471 61.377V61.377ZM14.0321 61.628C13.2961 60.251 14.9241 62.207 14.0321 61.628V61.628ZM12.4731 60.139C10.0471 57.978 15.5221 61.267 12.8691 60.539L12.4731 60.139ZM19.4271 64.178C18.3761 63.549 19.1471 59.746 19.5071 62.346C20.5271 62.016 19.4501 63.69 20.2111 63.674C20.0911 64.731 19.7501 65.109 19.4271 64.178ZM21.9991 65.7C22.1021 64.553 22.2151 66.482 21.9991 65.7V65.7ZM21.5521 65.256C21.5631 65.834 21.6671 64.769 21.5521 65.256V65.256ZM12.9481 59.429C11.3881 57.279 17.4791 61.606 13.9471 59.975C13.5781 59.878 13.1331 59.842 12.9481 59.429ZM17.9021 62.054C17.7541 60.243 18.2301 62.354 17.9021 62.054V62.054ZM21.6611 64.467C21.6841 65.149 21.9521 63.436 21.6611 64.467V64.467ZM13.1881 58.608C14.1151 58.41 17.0271 60.234 14.3531 59.129C14.0561 58.8 13.4211 58.949 13.1881 58.608ZM21.1451 62.574C21.2441 60.721 21.6991 61.469 21.1491 62.839L21.1451 62.574ZM13.8771 57.963C14.2541 57.409 12.8741 55.46 14.0761 57.265C14.5951 57.677 15.5781 57.955 14.7101 58.128C16.0761 59.334 14.3781 58.454 13.8771 57.963ZM20.7511 61.996C20.9821 63.231 21.0121 59.886 20.7511 61.996V61.996ZM13.0871 56.014C13.2411 56.399 13.3771 55.891 13.0871 56.014V56.014ZM14.8821 57.081C15.3431 56.112 15.7321 58.161 14.8821 57.081V57.081ZM19.9381 59.895C19.9351 59.522 20.0351 60.436 19.9381 59.895V59.895ZM19.6461 59.246C18.9451 57.515 20.2991 60.163 19.6461 59.246V59.246ZM19.2151 58.11C19.0981 57.396 19.6161 59.009 19.2151 58.11V58.11ZM19.9181 56.97C19.4351 56.121 20.5251 53.23 20.6481 55.024C20.1391 56.42 20.5021 57.203 20.8551 55.329C21.5101 53.853 20.7131 58.239 19.9181 56.97ZM20.6381 52.669C20.6851 52.98 20.8481 52.412 20.6381 52.669V52.669ZM19.4341 76.394C19.1481 76.144 19.4701 76.551 19.4341 76.394V76.394ZM21.9141 77.647C23.2941 78.001 23.2871 77.432 22.0401 77.263C21.3701 76.639 19.2531 75.977 21.1481 77.185C21.2721 77.504 21.6681 77.496 21.9141 77.647ZM17.0171 74.394C17.7761 74.962 19.8791 75.999 18.1001 74.61C18.7001 73.914 16.9521 73.542 17.5311 73.075C16.0551 72.173 16.3661 72.254 17.4011 72.282C15.6281 71.488 17.6571 71.549 17.5621 71.141C16.8781 71.006 14.1651 69.935 15.7611 71.229C14.1391 70.403 15.3741 71.537 14.8841 71.417C13.2241 70.966 16.3611 72.681 14.6211 72.255C15.5721 73.008 17.1821 74.188 15.0221 73.052C14.7381 73.462 16.5671 74.082 17.0171 74.394ZM19.6101 75.884C18.0631 74.642 22.7631 76.898 19.6101 75.884V75.884ZM32.8881 83.929C32.4581 84.462 32.9291 83.303 32.8881 83.929V83.929ZM34.2531 84.502C34.9811 83.799 34.2831 85.626 35.4581 84.33C35.4711 83.402 35.4231 82.853 34.1081 83.98C33.7441 84.183 33.5831 85.035 34.2531 84.502ZM12.5891 70.896C11.0221 70.022 12.3661 70.02 12.5891 70.896V70.896ZM14.0451 71.852C12.1151 71.039 13.5041 70.955 14.0451 71.852V71.852ZM22.3371 76.852C23.1471 77.572 26.0551 77.38 23.3201 76.941C22.9161 76.342 20.7491 76.484 22.3371 76.852ZM33.7331 83.891C32.5261 84.356 34.9791 82.845 33.7331 83.891V83.891ZM36.3251 85.671C35.7881 85.817 36.3331 85.335 36.3251 85.671V85.671ZM36.3291 85.201C34.9931 85.287 37.7081 83.739 36.3291 85.201V85.201ZM9.00406 67.896C7.82806 66.219 8.27306 65.465 7.14006 64.095C6.92406 63.047 5.19406 60.67 6.24506 63.188C7.20706 64.661 7.49206 66.941 9.00406 67.896ZM35.8961 84.737C34.8541 84.021 38.4351 83.097 35.8961 84.737V84.737ZM37.8331 85.495C37.0291 85.268 39.1051 84.403 37.8331 85.495V85.495ZM12.1581 69.042C11.2181 68.972 12.5211 68.502 12.1581 69.042V69.042ZM37.4291 84.977C38.6601 84.185 37.1451 84.306 37.2061 85.049L37.4291 84.977ZM20.7281 74.451C20.0781 74.496 20.6861 73.915 20.7281 74.451V74.451ZM21.7601 75.044C21.2561 75.149 21.4311 74.381 21.7601 75.044V75.044ZM39.4031 85.513C40.9801 84.375 38.4481 85.296 39.0731 85.729L39.4031 85.513ZM38.7991 85.222C37.4441 85.698 40.0841 84.145 38.7991 85.222V85.222ZM41.8851 87.276C40.8361 87.089 42.7481 86.698 41.8851 87.276V87.276ZM12.9481 68.652C14.1031 68.911 17.5671 71.499 15.5241 68.832C14.4771 68.522 15.1051 65.964 14.0371 66.416C14.7541 67.614 14.6261 68.122 13.1221 67.368C11.2321 66.444 12.0591 67.825 12.4301 68.205C11.9261 68.319 13.0961 68.644 12.9481 68.652ZM7.68306 64.494C7.89006 63.637 5.77706 59.786 6.68506 62.563C7.01206 63.145 6.97906 64.247 7.68306 64.494ZM17.3481 70.453C16.7511 69.955 17.3191 70.381 17.3481 70.453V70.453ZM18.8131 70.794C17.1931 70.425 18.8131 69.888 18.8131 70.794V70.794ZM31.5151 78.8C30.5581 78.786 31.2721 78.182 31.5151 78.8V78.8ZM32.1251 79.245C31.7731 79.313 32.0341 78.898 32.1251 79.245V79.245ZM37.1591 82.417C36.5551 82.371 37.6431 82.061 37.1591 82.417V82.417ZM10.3121 65.165C8.82706 64.783 11.6971 64.629 10.3121 65.165V65.165ZM30.3961 77.817C29.5131 78.041 30.3811 76.922 30.3961 77.817V77.817ZM9.76506 63.89C8.94106 63.692 10.6541 63.589 9.76506 63.89V63.89ZM12.3461 65.14C12.0741 65.253 12.3321 64.846 12.3461 65.14V65.14ZM43.8421 84.453C44.9861 84.224 47.5931 85.035 48.0141 84.15C46.6241 84.116 43.2081 83.171 43.0471 84.375L43.3511 84.423L43.8421 84.453ZM13.1671 65.348C12.4591 65.313 13.1881 64.438 13.1671 65.348V65.348ZM6.37906 60.638C5.20606 60.375 6.07106 58.907 6.37906 60.638V60.638ZM7.99706 61.044C6.51606 60.544 8.01806 60.488 7.99706 61.044V61.044ZM8.92306 61.499C8.65506 61.283 8.71406 61.772 8.92306 61.499V61.499ZM14.7441 65.233C14.0951 65.047 15.0191 64.98 14.7441 65.233V65.233ZM8.30806 60.474C6.43106 60.279 8.15006 59.167 8.30806 60.474V60.474ZM4.98606 58.321C4.66406 58.548 4.94006 57.717 4.98606 58.321V58.321ZM5.48106 57.948C5.05706 58.038 5.40106 57.231 5.48106 57.948V57.948ZM8.20806 59.575C9.36206 59.123 6.10806 58.638 7.97206 59.49L8.20806 59.575ZM44.7171 82.127C43.7801 81.918 45.4561 81.45 44.7171 82.127V82.127ZM49.1281 84.412C48.3821 84.528 49.4241 83.54 49.1281 84.412V84.412ZM8.48806 58.147C7.57206 58.314 8.60906 57.299 8.48806 58.147V58.147ZM4.60606 55.546C4.39806 54.351 4.42706 52.254 6.42006 52.962C3.75906 53.491 8.26306 56.271 7.69506 54.075C8.81406 54.131 9.88306 53.414 9.29706 54.5C11.5021 54.258 13.0301 52.345 15.1611 52.613C16.8201 52.393 18.6351 52.226 20.4221 51.558C21.8931 51.453 23.3091 49.87 22.5031 48.932C20.4981 48.762 18.3991 49.014 16.1831 49.454C13.7281 49.964 11.4971 50.933 9.01906 51.35C6.60306 51.675 9.50406 52.245 8.81106 52.371C7.55206 52.809 10.3151 53.103 8.64806 53.564C7.61906 53.368 6.54706 53.015 6.98706 51.93C4.67406 52.231 2.64006 53.19 4.46806 55.544L4.60606 55.546ZM10.1821 52.707C10.7241 50.709 13.0871 54.351 11.0701 52.972C10.8301 52.791 10.4331 52.644 10.1821 52.707ZM10.2871 51.737C10.7021 52.065 11.0701 51.155 10.2871 51.737V51.737ZM11.2801 51.754C11.3521 50.835 13.5571 52.241 11.6441 52.085L11.2801 51.754ZM12.6401 51.208C12.7841 51.722 13.1371 50.626 12.6401 51.208V51.208ZM12.9881 50.975C13.8151 49.981 17.6691 50.339 14.8481 50.877C14.0921 50.308 13.5131 51.213 12.9881 50.975ZM18.0201 50.199C17.8951 47.484 20.5201 51.162 18.0201 50.199V50.199ZM19.4481 50.189C19.9691 48.824 21.4741 49.641 19.6901 49.915C19.7281 50.062 19.6371 50.623 19.4481 50.189ZM7.92506 57.445C6.27006 56.615 9.48406 56.49 7.92506 57.445V57.445ZM9.07806 57.764C7.88906 57.529 9.62506 57.183 9.07806 57.764V57.764ZM5.68006 55.354C4.62506 55.093 6.57106 54.668 5.68006 55.354V55.354ZM51.7311 84.163C51.0501 84.52 51.7581 83.368 51.7311 84.163V84.163ZM47.0521 80.97C46.4501 81.049 47.1861 80.056 47.0521 80.97V80.97ZM53.0181 84.471C54.2641 84.477 56.7931 84.084 54.0821 84.085C53.6561 84.15 51.6041 84.138 53.0181 84.471ZM10.0921 57.204C11.1011 57.136 11.6701 56.092 9.89606 56.151C7.14906 55.869 12.3201 57.093 9.54306 56.743C9.17206 56.989 10.0711 57.272 10.0921 57.204ZM10.9801 57.653C10.6681 57.997 10.8751 57.007 10.9801 57.653V57.653ZM12.0341 54.844C11.4281 54.699 12.4711 54.302 12.0341 54.844V54.844ZM8.68006 49.239C10.4801 48.628 12.9421 47.939 13.7911 49.54C12.9261 48.5 13.4411 47.475 14.2591 48.997C15.4141 50.536 15.9911 48.297 15.2411 47.78C16.0971 48.843 17.0701 49.347 15.8141 47.847C17.1801 46.205 13.0801 48.063 12.1491 48.044C11.7001 48.244 7.52006 49.109 8.68006 49.239ZM9.73506 47.219C10.7601 46.444 13.2851 47.68 11.6651 46.448C11.5061 46.309 8.12006 47.383 9.73506 47.219ZM13.4781 47.374C14.6781 47.404 12.9591 45.759 14.3901 46.504C14.1561 45.737 12.7241 45.594 12.0241 45.286C11.6271 45.989 12.8291 47.383 13.4781 47.374ZM10.3911 43.977C9.66306 44.263 10.8071 43.413 10.3911 43.977V43.977ZM11.9211 44.342C13.8571 44.086 11.4271 43.509 11.5301 44.322L11.9211 44.342ZM9.06506 42.109C7.70106 40.328 11.6291 42.408 10.2431 40.544C9.07706 39.616 7.95806 41.591 9.06506 42.109ZM26.5561 51.53C27.1811 50.422 23.9761 50.036 26.1361 51.138C26.3331 51.203 26.2891 51.605 26.5561 51.53Z" fill="white"/>
<path d="M56.063 43.886C55.84 44.769 55.701 46.248 55.649 48.326C55.649 48.735 55.465 48.939 55.096 48.939C54.728 48.939 54.471 48.761 54.327 48.406C53.932 47.445 53.557 46.776 53.202 46.393C52.782 45.946 52.222 45.676 51.525 45.584C50.775 45.466 48.908 45.406 45.921 45.406C45.238 45.406 44.789 45.479 44.58 45.623C44.448 45.715 44.383 45.913 44.383 46.217V55.155C44.383 55.459 44.573 55.602 44.954 55.59C46.125 55.576 47.822 55.496 50.044 55.352C50.478 55.3 50.771 55.157 50.922 54.928C51.074 54.699 51.222 54.103 51.366 53.142C51.458 52.616 51.767 52.412 52.293 52.531C52.741 52.623 52.933 52.827 52.866 53.142C52.497 54.932 52.378 57.26 52.51 60.128C52.524 60.47 52.307 60.654 51.86 60.68C51.491 60.72 51.261 60.522 51.169 60.088C50.828 58.444 50.192 57.567 49.266 57.453C48.338 57.343 46.829 57.287 44.738 57.287C44.501 57.287 44.384 57.37 44.384 57.542V66.424C44.384 67.08 44.626 67.528 45.113 67.765C45.496 67.961 46.317 68.139 47.58 68.297C48.226 68.361 48.507 68.647 48.429 69.145C48.349 69.58 47.771 69.75 46.692 69.658C43.574 69.409 41.003 69.423 38.978 69.699C38.412 69.776 38.13 69.548 38.13 69.009C38.13 68.667 38.412 68.47 38.978 68.417C40.267 68.271 40.911 67.14 40.911 65.022V48.127C40.911 47.261 40.757 46.593 40.448 46.127C40.138 45.659 39.563 45.233 38.721 44.853C38.195 44.616 37.999 44.293 38.13 43.885C38.195 43.635 38.301 43.497 38.445 43.471C38.576 43.431 38.926 43.458 39.49 43.55C40.319 43.682 42.273 43.748 45.35 43.748C48.982 43.748 52.118 43.668 54.763 43.511C55.644 43.458 56.085 43.53 56.085 43.727C56.0839 43.7807 56.0765 43.834 56.063 43.886ZM68.889 68.967C68.889 69.492 68.592 69.724 68 69.655C66.187 69.486 63.936 69.51 61.253 69.734C60.713 69.788 60.382 69.773 60.255 69.696C60.13 69.617 60.068 69.4 60.068 69.043C60.068 68.729 60.426 68.463 61.143 68.246C61.861 68.029 62.219 67.38 62.219 66.302V48.445C62.219 47.378 62.064 46.596 61.756 46.096C61.446 45.596 60.904 45.208 60.128 44.933C59.72 44.788 59.516 44.584 59.516 44.32C59.516 43.926 59.812 43.63 60.403 43.433C61.299 43.143 62.226 42.698 63.187 42.091C63.976 41.617 64.476 41.383 64.686 41.383C65.173 41.383 65.416 41.717 65.416 42.389C65.416 42.336 65.389 42.994 65.337 44.361C65.299 45.663 65.285 46.945 65.299 48.209L65.376 65.828C65.376 66.632 65.574 67.215 65.969 67.576C66.364 67.938 67.041 68.178 68 68.296C68.592 68.359 68.889 68.584 68.889 68.967ZM86.883 67.643C86.883 67.921 86.38 68.338 85.375 68.896C84.368 69.456 83.562 69.735 82.957 69.735C82.443 69.735 81.991 69.487 81.596 68.985C81.201 68.486 80.925 68.236 80.766 68.236C80.649 68.236 80.025 68.507 78.893 69.044C77.763 69.585 76.623 69.856 75.48 69.856C74.402 69.856 73.5 69.539 72.776 68.909C71.988 68.212 71.592 67.263 71.592 66.066C71.592 63.791 74.196 62.16 79.406 61.173C80.3 61.002 80.754 60.64 80.765 60.087L80.807 58.824C80.884 56.667 79.931 55.589 77.945 55.589C77.38 55.589 76.842 56.093 76.336 57.107C75.831 58.12 75.104 58.666 74.157 58.746C73.079 58.85 72.538 58.396 72.538 57.384C72.538 56.752 73.342 56.016 74.946 55.173C76.629 54.293 78.249 53.852 79.8 53.852C82.47 53.852 83.793 55.122 83.766 57.661L83.686 65.789C83.675 66.644 84.037 67.072 84.773 67.072C84.918 67.072 85.194 67.039 85.601 66.973C85.8365 66.9297 86.0737 66.8967 86.312 66.874C86.693 66.874 86.883 67.132 86.883 67.643ZM80.808 63.145C80.82 62.816 80.744 62.598 80.579 62.494C80.416 62.389 80.156 62.369 79.801 62.434C76.63 63 75.046 64.033 75.046 65.531C75.046 67.044 75.868 67.801 77.512 67.801C78.17 67.801 78.848 67.677 79.544 67.428C80.36 67.137 80.767 66.788 80.767 66.381L80.808 63.145ZM101.604 65.294C101.604 66.69 101.067 67.798 99.996 68.62C98.925 69.443 97.461 69.854 95.604 69.854C94.37 69.854 93.131 69.723 91.895 69.458C90.83 69.221 90.211 69.005 90.041 68.808C89.935 68.622 89.883 67.723 89.883 66.105C89.883 65.406 90.041 65.045 90.359 65.019C90.672 64.979 90.942 65.15 91.167 65.531C92.153 67.255 93.745 68.118 95.941 68.118C97.795 68.118 98.722 67.472 98.722 66.183C98.722 65.619 98.514 65.144 98.091 64.763C97.63 64.328 96.737 63.821 95.408 63.243C93.487 62.388 92.204 61.638 91.56 60.993C90.863 60.309 90.513 59.389 90.513 58.23C90.513 56.81 91.059 55.705 92.152 54.916C93.166 54.154 94.519 53.772 96.215 53.772C97.281 53.772 98.255 53.857 99.136 54.028C100.084 54.2 100.577 54.41 100.617 54.66C100.721 55.396 100.939 56.462 101.266 57.858C101.307 58.028 101.121 58.166 100.714 58.271C100.279 58.363 99.991 58.29 99.847 58.055C98.806 56.357 97.493 55.508 95.9 55.508C94.098 55.508 93.196 56.087 93.196 57.245C93.196 57.891 93.441 58.402 93.926 58.783C94.361 59.112 95.38 59.625 96.985 60.323C98.669 61.046 99.813 61.698 100.418 62.276C101.211 63.026 101.604 64.033 101.604 65.294ZM124.493 68.847C124.493 69.308 124.183 69.552 123.565 69.577C122.643 69.591 121.44 69.655 119.954 69.773C119.218 69.919 118.691 69.828 118.375 69.499C116.297 67.262 114.534 64.921 113.087 62.474C112.97 62.264 112.817 62.159 112.634 62.159C112.409 62.159 112.022 62.357 111.471 62.751C110.851 63.092 110.542 63.579 110.542 64.209C110.542 64.658 110.555 65.302 110.581 66.145C110.607 66.986 110.817 67.539 111.213 67.801C111.489 67.987 112.127 68.131 113.126 68.236C113.744 68.315 114.054 68.546 114.054 68.926C114.054 69.23 114.004 69.417 113.907 69.489C113.809 69.562 113.548 69.578 113.127 69.538C111.812 69.421 109.59 69.487 106.457 69.735C105.669 69.8 105.241 69.703 105.177 69.439C105.145 69.3095 105.132 69.1763 105.136 69.043C105.136 68.637 105.537 68.327 106.34 68.118C107.065 67.932 107.425 67.085 107.425 65.572V48.326C107.425 47.248 107.321 46.498 107.111 46.078C106.822 45.537 106.215 45.116 105.295 44.813C104.861 44.669 104.645 44.466 104.645 44.202C104.645 43.82 104.955 43.524 105.572 43.315C106.566 42.9824 107.514 42.5247 108.392 41.953C109.117 41.479 109.564 41.242 109.735 41.242C110.274 41.242 110.545 41.584 110.545 42.269C110.545 42.176 110.539 42.828 110.524 44.221C110.511 45.182 110.504 46.471 110.504 48.09L110.544 60.44C110.544 60.784 110.637 60.954 110.819 60.954C111.015 60.954 111.319 60.784 111.727 60.44C113.096 59.3561 114.438 58.2377 115.751 57.086C116.068 56.757 116.225 56.495 116.225 56.297C116.225 55.942 115.693 55.692 114.628 55.547C114.168 55.493 113.948 55.237 113.975 54.776C114.016 54.317 114.246 54.119 114.667 54.185C115.614 54.317 116.996 54.389 118.81 54.402C120.074 54.414 121.33 54.422 122.58 54.422C122.987 54.436 123.191 54.678 123.191 55.152C123.191 55.599 122.869 55.842 122.225 55.882C121.234 55.9141 120.261 56.149 119.364 56.572C118.113 57.138 116.778 58.131 115.357 59.551C115.309 59.5837 115.269 59.6277 115.242 59.6791C115.215 59.7305 115.2 59.7878 115.2 59.846C115.2 60.031 115.423 60.471 115.871 61.169C117.516 63.669 119.068 65.556 120.527 66.832C121.462 67.634 122.336 68.035 123.152 68.035C123.756 68.035 124.132 68.078 124.276 68.164C124.42 68.252 124.493 68.479 124.493 68.847Z" fill="white"/>
</svg>
