<svg width="128" height="128" viewBox="0 0 128 128" fill="none" xmlns="http://www.w3.org/2000/svg">
<path d="M80.5999 40.3H81L80.8 40.1L94.8 26.1V25.8C83 15.4 66.7 11.8 51.5999 16.3C36.4999 20.8 24.9 32.8 20.7 48C20.9 47.9 21.2 47.8 21.5 47.8C26.7 44.4 32.9 42.4 39.4 42.4C41.6 42.4 43.6999 42.6 45.7999 43C45.9 42.9 45.9999 42.9 46.0999 42.9C55.0999 33 70.2999 31.8 80.6999 40.3H80.5999Z" fill="#EA4535"/>
<path d="M108.1 47.8C105.8 39.3 101 31.6 94.3001 25.7L80 39.9C86 44.8 89.5001 52.2 89.3001 59.9V62.4C106.2 62.4 106.2 87.6 89.3001 87.6H63.9001V107.6H63.8L63.9001 107.8H89.3001C103.9 107.9 116.8 98.5 121.1 84.7C125.4 70.9 120.1 55.9 108.1 47.8Z" fill="#557EBF"/>
<path d="M39 107.9H65.3V87.7H39C37.1 87.7 35.3 87.3 33.6 86.6L18.4 101.2V101.4C24.4 105.7 31.6 108 39.1 108L39 107.9Z" fill="#36A852"/>
<path d="M40.2 41.9C25.3 42 12.1 51.2 7.29999 64.7C2.49999 78.3 7.29999 93.2 19.1 102L34.7 87.1C26.1 83.4 24.1 72.6 30.7 66.3C37.3 59.9 48.5 61.9 52.4 70.1L68 55.2C61.4 46.9 51.1 42 40.2 42.1V41.9Z" fill="#F9BC15"/>
</svg>
