<svg width="128" height="128" viewBox="0 0 128 128" fill="none" xmlns="http://www.w3.org/2000/svg">
<path d="M18.39 96.852L13.79 94.195L65.04 5.43402L69.637 8.09002L18.39 96.852Z" fill="#E434AA"/>
<path d="M12.734 87.105H115.23V92.415H12.734V87.105Z" fill="#E434AA"/>
<path d="M66.031 119.688L14.766 90.09L17.422 85.488L68.688 115.09L66.031 119.688ZM110.566 42.543L59.301 12.941L61.957 8.34399L113.223 37.941L110.566 42.543Z" fill="#E434AA"/>
<path d="M17.434 42.523L14.777 37.922L66.047 8.32397L68.703 12.922L17.434 42.523Z" fill="#E434AA"/>
<path d="M109.621 96.852L58.375 8.09002L62.973 5.43402L114.223 94.195L109.621 96.852ZM16.8 34.398H22.113V93.602H16.801L16.8 34.398Z" fill="#E434AA"/>
<path d="M105.887 34.398H111.199V93.602H105.887V34.398Z" fill="#E434AA"/>
<path d="M65.129 117.441L62.809 113.421L107.395 87.676L109.715 91.696L65.129 117.441Z" fill="#E434AA"/>
<path d="M118.238 95.328C115.168 100.672 108.32 102.496 102.977 99.426C97.633 96.352 95.809 89.504 98.879 84.16C101.953 78.816 108.801 76.992 114.145 80.063C119.52 83.168 121.344 89.984 118.238 95.328ZM29.09 43.84C26.016 49.184 19.168 51.008 13.824 47.937C8.48 44.863 6.656 38.016 9.727 32.672C12.801 27.328 19.648 25.504 24.992 28.574C30.336 31.68 32.16 38.496 29.09 43.84ZM9.762 95.328C6.687 89.984 8.512 83.168 13.855 80.062C19.199 76.992 26.015 78.816 29.121 84.16C32.191 89.504 30.367 96.32 25.023 99.426C19.648 102.496 12.832 100.672 9.762 95.328ZM98.91 43.84C95.84 38.496 97.664 31.68 103.008 28.574C108.352 25.504 115.168 27.328 118.273 32.672C121.343 38.016 119.52 44.832 114.176 47.938C108.832 51.008 101.984 49.184 98.91 43.84ZM64 126.656C62.533 126.657 61.0802 126.369 59.7246 125.809C58.3691 125.248 57.1374 124.425 56.1001 123.388C55.0628 122.351 54.2402 121.119 53.6794 119.763C53.1187 118.408 52.8307 116.955 52.832 115.488C52.8307 114.021 53.1187 112.568 53.6794 111.213C54.2402 109.857 55.0628 108.625 56.1001 107.588C57.1374 106.551 58.3691 105.728 59.7246 105.167C61.0802 104.607 62.533 104.319 64 104.32C65.467 104.319 66.9198 104.607 68.2754 105.167C69.6309 105.728 70.8626 106.551 71.8999 107.588C72.9372 108.625 73.7598 109.857 74.3206 111.213C74.8813 112.568 75.1693 114.021 75.168 115.488C75.168 121.633 70.176 126.656 64 126.656ZM64 23.68C62.533 23.6813 61.0802 23.3933 59.7246 22.8326C58.3691 22.2718 57.1374 21.4492 56.1001 20.4119C55.0628 19.3746 54.2402 18.1429 53.6794 16.7874C53.1187 15.4318 52.8307 13.979 52.832 12.512C52.8307 11.045 53.1187 9.59219 53.6794 8.23663C54.2402 6.88108 55.0628 5.6494 56.1001 4.6121C57.1374 3.57479 58.3691 2.75221 59.7246 2.19143C61.0802 1.63065 62.533 1.34268 64 1.344C65.467 1.34268 66.9198 1.63065 68.2754 2.19143C69.6309 2.75221 70.8626 3.57479 71.8999 4.6121C72.9372 5.6494 73.7598 6.88108 74.3206 8.23663C74.8813 9.59219 75.1693 11.045 75.168 12.512C75.1693 13.979 74.8813 15.4318 74.3206 16.7874C73.7598 18.1429 72.9372 19.3746 71.8999 20.4119C70.8626 21.4492 69.6309 22.2718 68.2754 22.8326C66.9198 23.3933 65.467 23.6813 64 23.68Z" fill="#E434AA"/>
</svg>
