<svg width="128" height="128" viewBox="0 0 128 128" fill="none" xmlns="http://www.w3.org/2000/svg">
<path d="M56.484 55.098C56.854 55.368 57.304 55.528 57.794 55.528C58.994 55.528 59.974 54.578 60.024 53.398L60.074 53.368L60.824 40.108C59.924 40.218 59.024 40.368 58.124 40.568C53.194 41.688 48.924 44.118 45.584 47.398L56.454 55.108L56.484 55.098ZM55.034 74.528C54.9072 73.9666 54.5672 73.4765 54.0858 73.1612C53.6044 72.8458 53.0193 72.7299 52.454 72.838L52.434 72.808L39.384 75.018C41.3421 80.44 45.037 85.0629 49.894 88.168L54.954 75.948L54.914 75.898C55.084 75.478 55.144 75.008 55.034 74.528ZM50.694 65.118C51.134 64.998 51.544 64.738 51.854 64.358C52.604 63.418 52.474 62.068 51.574 61.288L51.584 61.238L41.654 52.358C38.626 57.2885 37.3243 63.0863 37.954 68.838L50.684 65.168L50.694 65.118ZM60.334 69.018L63.994 70.778L67.654 69.028L68.554 65.078L66.024 61.918H61.964L59.424 65.078L60.334 69.018ZM67.934 53.348C67.954 53.808 68.114 54.258 68.424 54.638C69.174 55.578 70.524 55.748 71.484 55.048L71.524 55.068L82.324 47.408C78.244 43.418 72.924 40.808 67.174 40.108L67.924 53.348H67.934ZM75.514 72.778C75.344 72.748 75.174 72.728 75.004 72.738C74.714 72.748 74.424 72.828 74.154 72.958C73.6362 73.2077 73.2348 73.6476 73.0336 74.1861C72.8323 74.7246 72.8468 75.3199 73.074 75.848L73.054 75.868L78.164 88.208C83.094 85.068 86.774 80.378 88.704 74.968L75.544 72.738L75.514 72.778ZM65.954 79.318C65.7553 78.9535 65.4595 78.6512 65.0994 78.4447C64.7393 78.2381 64.3289 78.1354 63.914 78.148C63.144 78.178 62.414 78.608 62.024 79.328H62.014L55.594 90.928C60.1908 92.4908 65.1317 92.7436 69.864 91.658C70.744 91.458 71.604 91.218 72.434 90.938L66.004 79.308H65.954V79.318Z" fill="#486BB3"/>
<path d="M124.544 76.788L114.104 31.458C113.832 30.2822 113.297 29.1831 112.54 28.2429C111.784 27.3026 110.824 26.5455 109.734 26.028L67.494 5.84799C66.2722 5.26693 64.9251 4.99889 63.574 5.06799C62.4993 5.12081 61.4457 5.38591 60.474 5.84799L18.234 26.028C17.1454 26.5481 16.1876 27.306 15.4313 28.2458C14.6749 29.1857 14.1393 30.2834 13.864 31.458L3.45399 76.798C3.21217 77.8426 3.18498 78.9254 3.37406 79.9808C3.56314 81.0363 3.96456 82.0423 4.55399 82.938C4.69399 83.158 4.85399 83.368 5.01399 83.578L34.254 119.928C35.0147 120.871 35.9775 121.631 37.0714 122.152C38.1653 122.673 39.3624 122.942 40.574 122.938L87.464 122.928C89.924 122.928 92.244 121.818 93.784 119.918L123.014 83.558C123.762 82.6176 124.289 81.5203 124.553 80.348C124.818 79.1758 124.815 77.9588 124.544 76.788ZM108.474 76.238C108.164 77.588 106.714 78.408 105.214 78.088C105.204 78.088 105.184 78.088 105.174 78.078C105.154 78.078 105.144 78.068 105.124 78.058C104.914 78.008 104.654 77.968 104.474 77.918C103.614 77.688 102.984 77.338 102.204 77.038C100.534 76.438 99.144 75.938 97.794 75.738C97.104 75.688 96.754 76.008 96.374 76.258C96.194 76.218 95.624 76.118 95.294 76.068C92.874 83.678 87.714 90.278 80.724 94.398C80.844 94.688 81.054 95.308 81.144 95.418C80.984 95.848 80.744 96.248 80.954 96.908C81.444 98.178 82.234 99.428 83.194 100.918C83.654 101.608 84.134 102.138 84.554 102.938C84.654 103.128 84.784 103.418 84.884 103.618C85.534 105.008 85.054 106.608 83.804 107.208C82.544 107.818 80.984 107.178 80.304 105.778C80.204 105.578 80.074 105.318 79.994 105.128C79.634 104.308 79.514 103.608 79.264 102.808C78.694 101.128 78.214 99.738 77.534 98.558C77.144 97.988 76.674 97.918 76.244 97.778C76.164 97.638 75.864 97.088 75.704 96.808C74.304 97.338 72.864 97.778 71.364 98.118C64.804 99.608 58.234 99.008 52.374 96.748L51.804 97.788C51.374 97.898 50.964 98.018 50.714 98.318C49.794 99.418 49.424 101.178 48.754 102.858C48.504 103.648 48.384 104.358 48.024 105.178C47.944 105.368 47.804 105.628 47.714 105.818V105.828L47.704 105.838C47.034 107.228 45.474 107.868 44.214 107.268C42.964 106.668 42.494 105.068 43.134 103.678C43.234 103.478 43.354 103.188 43.454 102.998C43.874 102.208 44.344 101.668 44.814 100.978C45.774 99.478 46.614 98.138 47.104 96.868C47.224 96.448 47.044 95.868 46.884 95.438L47.344 94.338C40.614 90.348 35.304 83.998 32.764 76.128L31.664 76.318C31.364 76.148 30.774 75.758 30.214 75.808C28.864 76.008 27.474 76.508 25.804 77.108C25.024 77.408 24.404 77.748 23.534 77.978C23.354 78.028 23.094 78.078 22.884 78.128C22.864 78.128 22.854 78.138 22.834 78.148C22.824 78.148 22.804 78.148 22.794 78.158C21.294 78.478 19.844 77.658 19.534 76.308C19.224 74.958 20.184 73.588 21.674 73.228C21.684 73.228 21.704 73.218 21.714 73.218C21.724 73.218 21.724 73.218 21.734 73.208C21.944 73.158 22.214 73.088 22.414 73.048C23.294 72.878 24.014 72.918 24.844 72.858C26.614 72.668 28.074 72.518 29.374 72.108C29.784 71.938 30.184 71.368 30.464 71.008L31.524 70.698C30.334 62.478 32.344 54.418 36.684 47.888L35.874 47.168C35.824 46.848 35.754 46.128 35.364 45.708C34.374 44.778 33.114 43.998 31.604 43.068C30.884 42.648 30.224 42.378 29.504 41.838C29.354 41.728 29.144 41.548 28.984 41.418C28.974 41.408 28.954 41.398 28.944 41.388C27.734 40.418 27.454 38.748 28.324 37.658C28.814 37.048 29.564 36.738 30.334 36.768C30.934 36.788 31.564 37.008 32.094 37.428C32.264 37.568 32.504 37.748 32.654 37.878C33.334 38.458 33.744 39.038 34.314 39.648C35.564 40.918 36.594 41.968 37.724 42.728C38.314 43.078 38.774 42.938 39.224 42.878C39.374 42.988 39.854 43.338 40.134 43.528C44.434 38.958 50.094 35.578 56.654 34.088C58.184 33.738 59.704 33.508 61.224 33.388L61.284 32.318C61.624 31.988 61.994 31.528 62.104 31.008C62.214 29.648 62.034 28.188 61.824 26.418C61.704 25.598 61.514 24.908 61.474 24.018C61.464 23.838 61.474 23.578 61.484 23.368C61.484 23.348 61.474 23.318 61.474 23.298C61.474 21.748 62.604 20.488 64.004 20.488C65.404 20.488 66.534 21.748 66.534 23.298C66.534 23.518 66.544 23.818 66.544 24.018C66.514 24.908 66.314 25.598 66.194 26.418C65.984 28.178 65.794 29.648 65.904 31.008C66.004 31.688 66.404 31.958 66.734 32.268C66.744 32.448 66.774 33.058 66.794 33.398C74.834 34.108 82.294 37.788 87.784 43.538L88.744 42.848C89.074 42.868 89.784 42.968 90.274 42.678C91.404 41.918 92.434 40.858 93.684 39.598C94.254 38.988 94.674 38.418 95.354 37.828C95.504 37.698 95.744 37.518 95.914 37.378C97.124 36.408 98.814 36.518 99.684 37.608C100.554 38.698 100.274 40.368 99.064 41.338C98.894 41.478 98.674 41.668 98.504 41.788C97.784 42.318 97.124 42.588 96.404 43.018C94.894 43.948 93.634 44.728 92.644 45.658C92.174 46.158 92.214 46.638 92.164 47.088C92.024 47.218 91.534 47.658 91.264 47.888C93.5012 51.2169 95.1078 54.9285 96.004 58.838C96.924 62.828 97.064 66.808 96.534 70.638L97.554 70.938C97.734 71.198 98.114 71.828 98.644 72.038C99.944 72.448 101.404 72.598 103.174 72.788C104.004 72.858 104.724 72.818 105.604 72.978C105.814 73.018 106.124 73.098 106.334 73.148C107.834 73.518 108.784 74.888 108.474 76.238Z" fill="#486BB3"/>
<path d="M86.274 52.358L76.394 61.198L76.404 61.228C76.064 61.528 75.804 61.928 75.694 62.408C75.424 63.578 76.134 64.738 77.274 65.058L77.284 65.108L90.074 68.788C90.344 66.028 90.184 63.168 89.524 60.308C88.864 57.418 87.754 54.748 86.274 52.358Z" fill="#486BB3"/>
</svg>
