<svg width="128" height="128" viewBox="0 0 128 128" fill="none" xmlns="http://www.w3.org/2000/svg">
<g clip-path="url(#clip0_1_380)">
<path d="M116.155 97.2464L72.2585 4.02574C71.1473 1.6885 68.8441 0.148589 66.2597 0.0148459C63.6692 -0.158718 61.1972 1.12278 59.846 3.33971L12.2354 80.453C10.7573 82.8301 10.7884 85.8478 12.3151 88.194L35.5924 124.241C37.401 127.02 40.8222 128.278 44.0003 127.333L111.551 107.352C113.608 106.75 115.304 105.286 116.2 103.338C117.083 101.399 117.068 99.1698 116.158 97.2433L116.155 97.2464ZM106.327 101.245L49.0067 118.194C47.2581 118.714 45.5798 117.199 45.9435 115.434L66.4224 17.3763C66.8053 15.5415 69.3388 15.2512 70.1397 16.9487L108.05 97.4539C108.389 98.1799 108.394 99.0181 108.061 99.7474C107.729 100.477 107.094 101.024 106.324 101.245H106.327Z" fill="white"/>
</g>
<defs>
<clipPath id="clip0_1_380">
<rect width="128" height="128" fill="white"/>
</clipPath>
</defs>
</svg>
