<svg width="128" height="128" viewBox="0 0 128 128" fill="none" xmlns="http://www.w3.org/2000/svg">
<path d="M121.8 93.1C115.1 96.6 80.4 110.8 73 114.7C65.6 118.6 61.5 118.5 55.7 115.7C49.9 112.9 13 98.1 6.29999 94.9C2.99999 93.3 1.29999 92 1.29999 90.7V78C1.29999 78 49.3 67.5 57.1 64.8C64.9 62 67.5 61.9 74.1 64.3C80.7 66.7 120.2 73.8 126.7 76.2V88.7C126.7 90 125.2 91.4 121.8 93.1Z" fill="#A41E11"/>
<path d="M121.8 80.5C115.1 84 80.4 98.2 73 102.1C65.6 106 61.5 105.9 55.7 103.1C49.9 100.3 13 85.4 6.30001 82.2C-0.299993 79 -0.499993 76.8 6.00001 74.3C12.5 71.7 49.2 57.3 57 54.6C64.8 51.8 67.4 51.7 74 54.1C80.6 56.5 115.1 70.2 121.6 72.6C128.3 75 128.5 77 121.8 80.5Z" fill="#D82C20"/>
<path d="M121.8 72.5C115.1 76 80.4 90.2 73 94.1C65.6 97.9 61.5 97.9 55.7 95.1C49.9 92.3 13 77.4 6.29999 74.2C2.99999 72.6 1.29999 71.3 1.29999 70V57.3C1.29999 57.3 49.3 46.8 57.1 44.1C64.9 41.3 67.5 41.2 74.1 43.6C80.7 46 120.2 53.1 126.7 55.5V68C126.7 69.3 125.2 70.7 121.8 72.5Z" fill="#A41E11"/>
<path d="M121.8 59.8C115.1 63.3 80.4 77.5 73 81.4C65.6 85.2 61.5 85.2 55.7 82.4C49.9 79.6 13 64.7 6.29999 61.5C-0.400011 58.3 -0.500011 56.1 5.99999 53.6C12.5 51 49.2 36.6 57 33.9C64.8 31.1 67.4 31 74 33.4C80.6 35.8 115.1 49.5 121.6 51.9C128.3 54.3 128.5 56.3 121.8 59.8Z" fill="#D82C20"/>
<path d="M121.8 51C115.1 54.5 80.4 68.7 73 72.6C65.6 76.4 61.5 76.4 55.7 73.6C49.9 70.9 13 56 6.30001 52.8C3.00001 51.2 1.20001 49.9 1.20001 48.6V35.9C1.20001 35.9 49.2 25.4 57 22.7C64.8 19.9 67.4 19.8 74 22.2C80.6 24.6 120.1 31.7 126.6 34.1V46.6C126.7 47.9 125.2 49.2 121.8 51Z" fill="#A41E11"/>
<path d="M121.8 38.3C115.1 41.8 80.4 56 73 59.9C65.6 63.7 61.5 63.7 55.7 60.9C49.9 58.1 13 43.3 6.29999 40.1C-0.400011 36.9 -0.500011 34.7 5.99999 32.2C12.5 29.6 49.2 15.2 57 12.5C64.8 9.70001 67.4 9.60001 74 12C80.6 14.4 115.1 28.1 121.6 30.5C128.3 32.9 128.5 34.9 121.8 38.3Z" fill="#D82C20"/>
<path d="M80.4 26.1L69.6 27.3L67.1 33.1L63.2 26.6L50.7 25.5L60 22.1L57.2 16.9L66 20.3L74.2 17.6L72 23L80.4 26.1ZM66.5 54.5L46.2 46.1L75.3 41.7L66.5 54.5Z" fill="white"/>
<path d="M38.4 41.4C46.9604 41.4 53.9 38.7137 53.9 35.4C53.9 32.0863 46.9604 29.4 38.4 29.4C29.8396 29.4 22.9 32.0863 22.9 35.4C22.9 38.7137 29.8396 41.4 38.4 41.4Z" fill="white"/>
<path d="M93.3 27.7L110.5 34.5L93.3 41.3V27.7Z" fill="#7A0C00"/>
<path d="M74.3 35.3L93.3 27.7V41.3L91.4 42.1L74.3 35.3Z" fill="#AD2115"/>
</svg>
